%TF.GenerationSoftware,KiCad,Pcbnew,7.0.8*%
%TF.CreationDate,2023-11-07T10:44:17+02:00*%
%TF.ProjectId,Shield,53686965-6c64-42e6-9b69-6361645f7063,rev?*%
%TF.SameCoordinates,Original*%
%TF.FileFunction,Soldermask,Bot*%
%TF.FilePolarity,Negative*%
%FSLAX46Y46*%
G04 Gerber Fmt 4.6, Leading zero omitted, Abs format (unit mm)*
G04 Created by KiCad (PCBNEW 7.0.8) date 2023-11-07 10:44:17*
%MOMM*%
%LPD*%
G01*
G04 APERTURE LIST*
%ADD10R,1.700000X1.700000*%
%ADD11O,1.700000X1.700000*%
%ADD12R,2.000000X2.000000*%
%ADD13C,2.000000*%
%ADD14C,6.100000*%
%ADD15C,2.340000*%
%ADD16R,1.300000X0.300000*%
%ADD17R,2.200000X1.800000*%
%ADD18R,0.300000X1.300000*%
%ADD19R,1.800000X2.200000*%
G04 APERTURE END LIST*
D10*
%TO.C,J8*%
X130245000Y-80010000D03*
D11*
X130245000Y-82550000D03*
X130245000Y-85090000D03*
X130245000Y-87630000D03*
X130245000Y-90170000D03*
X130245000Y-92710000D03*
%TD*%
D10*
%TO.C,J16*%
X90398000Y-122260000D03*
D11*
X87858000Y-122260000D03*
%TD*%
D10*
%TO.C,J15*%
X90398000Y-117760000D03*
D11*
X87858000Y-117760000D03*
%TD*%
D10*
%TO.C,J19*%
X90398000Y-135760000D03*
D11*
X87858000Y-135760000D03*
%TD*%
D10*
%TO.C,SW1*%
X130300000Y-108500000D03*
D11*
X132840000Y-108500000D03*
%TD*%
D10*
%TO.C,J7*%
X112000000Y-104000000D03*
D11*
X109460000Y-104000000D03*
X106920000Y-104000000D03*
X104380000Y-104000000D03*
X101840000Y-104000000D03*
X99300000Y-104000000D03*
X96760000Y-104000000D03*
%TD*%
D12*
%TO.C,BZ1*%
X130850000Y-134320000D03*
D13*
X138450000Y-134320000D03*
%TD*%
D14*
%TO.C,H3*%
X81467200Y-97658600D03*
%TD*%
D10*
%TO.C,SW2*%
X130350000Y-104000000D03*
D11*
X132890000Y-104000000D03*
%TD*%
D10*
%TO.C,J3*%
X130350000Y-118500000D03*
D11*
X132890000Y-118500000D03*
%TD*%
D10*
%TO.C,J1*%
X130245000Y-72390000D03*
D11*
X130245000Y-74930000D03*
%TD*%
D15*
%TO.C,R11*%
X106052000Y-81868000D03*
X91052000Y-86868000D03*
X106052000Y-91868000D03*
%TD*%
D10*
%TO.C,J14*%
X90398000Y-113260000D03*
D11*
X87858000Y-113260000D03*
%TD*%
D10*
%TO.C,J13*%
X90398000Y-108964000D03*
D11*
X87858000Y-108964000D03*
%TD*%
D10*
%TO.C,J6*%
X116300000Y-122740000D03*
D11*
X116300000Y-120200000D03*
X118840000Y-122740000D03*
X118840000Y-120200000D03*
X121380000Y-122740000D03*
X121380000Y-120200000D03*
%TD*%
D10*
%TO.C,J17*%
X90398000Y-126760000D03*
D11*
X87858000Y-126760000D03*
%TD*%
D14*
%TO.C,H4*%
X139467200Y-146658600D03*
%TD*%
D10*
%TO.C,J18*%
X90398000Y-131260000D03*
D11*
X87858000Y-131260000D03*
%TD*%
D10*
%TO.C,J2*%
X130350000Y-114000000D03*
D11*
X132890000Y-114000000D03*
%TD*%
D10*
%TO.C,J4*%
X130350000Y-123000000D03*
D11*
X132890000Y-123000000D03*
%TD*%
D14*
%TO.C,H2*%
X81467200Y-146658600D03*
%TD*%
D16*
%TO.C,J11*%
X84793600Y-88889400D03*
X84793600Y-88389400D03*
X84793600Y-87889400D03*
X84793600Y-87389400D03*
X84793600Y-86889400D03*
X84793600Y-86389400D03*
X84793600Y-85889400D03*
X84793600Y-85389400D03*
X84793600Y-84889400D03*
X84793600Y-84389400D03*
X84793600Y-83889400D03*
X84793600Y-83389400D03*
X84793600Y-82889400D03*
X84793600Y-82389400D03*
X84793600Y-81889400D03*
X84793600Y-81389400D03*
X84793600Y-80889400D03*
X84793600Y-80389400D03*
X84793600Y-79889400D03*
X84793600Y-79389400D03*
X84793600Y-78889400D03*
X84793600Y-78389400D03*
D17*
X81543600Y-90789400D03*
X81543600Y-76489400D03*
%TD*%
D18*
%TO.C,J20*%
X120221800Y-67026800D03*
X120721800Y-67026800D03*
X121221800Y-67026800D03*
X121721800Y-67026800D03*
X122221800Y-67026800D03*
X122721800Y-67026800D03*
X123221800Y-67026800D03*
X123721800Y-67026800D03*
X124221800Y-67026800D03*
X124721800Y-67026800D03*
X125221800Y-67026800D03*
X125721800Y-67026800D03*
X126221800Y-67026800D03*
X126721800Y-67026800D03*
X127221800Y-67026800D03*
X127721800Y-67026800D03*
X128221800Y-67026800D03*
X128721800Y-67026800D03*
X129221800Y-67026800D03*
X129721800Y-67026800D03*
X130221800Y-67026800D03*
X130721800Y-67026800D03*
D19*
X118321800Y-63776800D03*
X132621800Y-63776800D03*
%TD*%
D10*
%TO.C,J5*%
X86337200Y-99018600D03*
D11*
X86337200Y-96478600D03*
X88877200Y-99018600D03*
X88877200Y-96478600D03*
X91417200Y-99018600D03*
X91417200Y-96478600D03*
X93957200Y-99018600D03*
X93957200Y-96478600D03*
X96497200Y-99018600D03*
X96497200Y-96478600D03*
X99037200Y-99018600D03*
X99037200Y-96478600D03*
X101577200Y-99018600D03*
X101577200Y-96478600D03*
X104117200Y-99018600D03*
X104117200Y-96478600D03*
X106657200Y-99018600D03*
X106657200Y-96478600D03*
X109197200Y-99018600D03*
X109197200Y-96478600D03*
X111737200Y-99018600D03*
X111737200Y-96478600D03*
X114277200Y-99018600D03*
X114277200Y-96478600D03*
X116817200Y-99018600D03*
X116817200Y-96478600D03*
X119357200Y-99018600D03*
X119357200Y-96478600D03*
X121897200Y-99018600D03*
X121897200Y-96478600D03*
X124437200Y-99018600D03*
X124437200Y-96478600D03*
X126977200Y-99018600D03*
X126977200Y-96478600D03*
X129517200Y-99018600D03*
X129517200Y-96478600D03*
X132057200Y-99018600D03*
X132057200Y-96478600D03*
X134597200Y-99018600D03*
X134597200Y-96478600D03*
%TD*%
D18*
%TO.C,J12*%
X84217400Y-67002600D03*
X84717400Y-67002600D03*
X85217400Y-67002600D03*
X85717400Y-67002600D03*
X86217400Y-67002600D03*
X86717400Y-67002600D03*
X87217400Y-67002600D03*
X87717400Y-67002600D03*
X88217400Y-67002600D03*
X88717400Y-67002600D03*
X89217400Y-67002600D03*
X89717400Y-67002600D03*
X90217400Y-67002600D03*
X90717400Y-67002600D03*
X91217400Y-67002600D03*
X91717400Y-67002600D03*
X92217400Y-67002600D03*
X92717400Y-67002600D03*
X93217400Y-67002600D03*
X93717400Y-67002600D03*
X94217400Y-67002600D03*
X94717400Y-67002600D03*
D19*
X82317400Y-63752600D03*
X96617400Y-63752600D03*
%TD*%
M02*
