%TF.GenerationSoftware,KiCad,Pcbnew,7.0.8*%
%TF.CreationDate,2023-11-07T10:44:17+02:00*%
%TF.ProjectId,Shield,53686965-6c64-42e6-9b69-6361645f7063,rev?*%
%TF.SameCoordinates,Original*%
%TF.FileFunction,Paste,Bot*%
%TF.FilePolarity,Positive*%
%FSLAX46Y46*%
G04 Gerber Fmt 4.6, Leading zero omitted, Abs format (unit mm)*
G04 Created by KiCad (PCBNEW 7.0.8) date 2023-11-07 10:44:17*
%MOMM*%
%LPD*%
G01*
G04 APERTURE LIST*
%ADD10R,1.300000X0.300000*%
%ADD11R,2.200000X1.800000*%
%ADD12R,0.300000X1.300000*%
%ADD13R,1.800000X2.200000*%
G04 APERTURE END LIST*
D10*
%TO.C,J11*%
X84793600Y-88889400D03*
X84793600Y-88389400D03*
X84793600Y-87889400D03*
X84793600Y-87389400D03*
X84793600Y-86889400D03*
X84793600Y-86389400D03*
X84793600Y-85889400D03*
X84793600Y-85389400D03*
X84793600Y-84889400D03*
X84793600Y-84389400D03*
X84793600Y-83889400D03*
X84793600Y-83389400D03*
X84793600Y-82889400D03*
X84793600Y-82389400D03*
X84793600Y-81889400D03*
X84793600Y-81389400D03*
X84793600Y-80889400D03*
X84793600Y-80389400D03*
X84793600Y-79889400D03*
X84793600Y-79389400D03*
X84793600Y-78889400D03*
X84793600Y-78389400D03*
D11*
X81543600Y-90789400D03*
X81543600Y-76489400D03*
%TD*%
D12*
%TO.C,J20*%
X120221800Y-67026800D03*
X120721800Y-67026800D03*
X121221800Y-67026800D03*
X121721800Y-67026800D03*
X122221800Y-67026800D03*
X122721800Y-67026800D03*
X123221800Y-67026800D03*
X123721800Y-67026800D03*
X124221800Y-67026800D03*
X124721800Y-67026800D03*
X125221800Y-67026800D03*
X125721800Y-67026800D03*
X126221800Y-67026800D03*
X126721800Y-67026800D03*
X127221800Y-67026800D03*
X127721800Y-67026800D03*
X128221800Y-67026800D03*
X128721800Y-67026800D03*
X129221800Y-67026800D03*
X129721800Y-67026800D03*
X130221800Y-67026800D03*
X130721800Y-67026800D03*
D13*
X118321800Y-63776800D03*
X132621800Y-63776800D03*
%TD*%
D12*
%TO.C,J12*%
X84217400Y-67002600D03*
X84717400Y-67002600D03*
X85217400Y-67002600D03*
X85717400Y-67002600D03*
X86217400Y-67002600D03*
X86717400Y-67002600D03*
X87217400Y-67002600D03*
X87717400Y-67002600D03*
X88217400Y-67002600D03*
X88717400Y-67002600D03*
X89217400Y-67002600D03*
X89717400Y-67002600D03*
X90217400Y-67002600D03*
X90717400Y-67002600D03*
X91217400Y-67002600D03*
X91717400Y-67002600D03*
X92217400Y-67002600D03*
X92717400Y-67002600D03*
X93217400Y-67002600D03*
X93717400Y-67002600D03*
X94217400Y-67002600D03*
X94717400Y-67002600D03*
D13*
X82317400Y-63752600D03*
X96617400Y-63752600D03*
%TD*%
M02*
