%TF.GenerationSoftware,KiCad,Pcbnew,7.0.8*%
%TF.CreationDate,2023-11-07T10:45:07+02:00*%
%TF.ProjectId,Shield,53686965-6c64-42e6-9b69-6361645f7063,rev?*%
%TF.SameCoordinates,Original*%
%TF.FileFunction,Drillmap*%
%TF.FilePolarity,Positive*%
%FSLAX45Y45*%
G04 Gerber Fmt 4.5, Leading zero omitted, Abs format (unit mm)*
G04 Created by KiCad (PCBNEW 7.0.8) date 2023-11-07 10:45:07*
%MOMM*%
%LPD*%
G01*
G04 APERTURE LIST*
%ADD10C,0.100000*%
%ADD11C,0.200000*%
%ADD12C,0.025000*%
%ADD13C,0.030000*%
%ADD14C,0.050000*%
%ADD15C,0.130000*%
G04 APERTURE END LIST*
D10*
X13490780Y-6761220D02*
X14280720Y-6761220D01*
X7808800Y-6027160D02*
X13490780Y-6027160D01*
X14280720Y-6761220D02*
X14280720Y-14998440D01*
X13490780Y-6027160D02*
X13490780Y-6761220D01*
X7808800Y-6027160D02*
X7808800Y-14998440D01*
X7808800Y-14998440D02*
X14280720Y-14998440D01*
D11*
D12*
X9703000Y-7518600D02*
X9728000Y-7543600D01*
X9728000Y-7518600D02*
X9703000Y-7543600D01*
X9703000Y-7618600D02*
X9728000Y-7643600D01*
X9728000Y-7618600D02*
X9703000Y-7643600D01*
X9703000Y-7718600D02*
X9728000Y-7743600D01*
X9728000Y-7718600D02*
X9703000Y-7743600D01*
X9833000Y-7518600D02*
X9858000Y-7543600D01*
X9858000Y-7518600D02*
X9833000Y-7543600D01*
X9833000Y-7618600D02*
X9858000Y-7643600D01*
X9858000Y-7618600D02*
X9833000Y-7643600D01*
X9833000Y-7718600D02*
X9858000Y-7743600D01*
X9858000Y-7718600D02*
X9833000Y-7743600D01*
D13*
X8115000Y-10150000D02*
G75*
G03*
X8115000Y-10150000I-15000J0D01*
G01*
X8187000Y-8053000D02*
G75*
G03*
X8187000Y-8053000I-15000J0D01*
G01*
X8194948Y-8610052D02*
G75*
G03*
X8194948Y-8610052I-15000J0D01*
G01*
X8239948Y-8412052D02*
G75*
G03*
X8239948Y-8412052I-15000J0D01*
G01*
X8239948Y-8859948D02*
G75*
G03*
X8239948Y-8859948I-15000J0D01*
G01*
X8255052Y-8549948D02*
G75*
G03*
X8255052Y-8549948I-15000J0D01*
G01*
X8278950Y-6731000D02*
G75*
G03*
X8278950Y-6731000I-15000J0D01*
G01*
X8300000Y-8055000D02*
G75*
G03*
X8300000Y-8055000I-15000J0D01*
G01*
X8300052Y-8351948D02*
G75*
G03*
X8300052Y-8351948I-15000J0D01*
G01*
X8300052Y-8920052D02*
G75*
G03*
X8300052Y-8920052I-15000J0D01*
G01*
X8310000Y-7915000D02*
G75*
G03*
X8310000Y-7915000I-15000J0D01*
G01*
X8315000Y-14050000D02*
G75*
G03*
X8315000Y-14050000I-15000J0D01*
G01*
X8315000Y-14200000D02*
G75*
G03*
X8315000Y-14200000I-15000J0D01*
G01*
X8495000Y-7690000D02*
G75*
G03*
X8495000Y-7690000I-15000J0D01*
G01*
X8501500Y-6477000D02*
G75*
G03*
X8501500Y-6477000I-15000J0D01*
G01*
X8515000Y-14050000D02*
G75*
G03*
X8515000Y-14050000I-15000J0D01*
G01*
X8515000Y-14200000D02*
G75*
G03*
X8515000Y-14200000I-15000J0D01*
G01*
X8540000Y-7765000D02*
G75*
G03*
X8540000Y-7765000I-15000J0D01*
G01*
X8565000Y-10250000D02*
G75*
G03*
X8565000Y-10250000I-15000J0D01*
G01*
X8586500Y-6477000D02*
G75*
G03*
X8586500Y-6477000I-15000J0D01*
G01*
X8675000Y-9065000D02*
G75*
G03*
X8675000Y-9065000I-15000J0D01*
G01*
X8715000Y-7100000D02*
G75*
G03*
X8715000Y-7100000I-15000J0D01*
G01*
X8715000Y-14050000D02*
G75*
G03*
X8715000Y-14050000I-15000J0D01*
G01*
X8715000Y-14200000D02*
G75*
G03*
X8715000Y-14200000I-15000J0D01*
G01*
X8747948Y-6446948D02*
G75*
G03*
X8747948Y-6446948I-15000J0D01*
G01*
X8808052Y-6507052D02*
G75*
G03*
X8808052Y-6507052I-15000J0D01*
G01*
X8905000Y-10130000D02*
G75*
G03*
X8905000Y-10130000I-15000J0D01*
G01*
X8905000Y-10130000D02*
G75*
G03*
X8905000Y-10130000I-15000J0D01*
G01*
X8915000Y-14050000D02*
G75*
G03*
X8915000Y-14050000I-15000J0D01*
G01*
X8915000Y-14200000D02*
G75*
G03*
X8915000Y-14200000I-15000J0D01*
G01*
X8921000Y-8396000D02*
G75*
G03*
X8921000Y-8396000I-15000J0D01*
G01*
X8922000Y-8639000D02*
G75*
G03*
X8922000Y-8639000I-15000J0D01*
G01*
X8944948Y-6474948D02*
G75*
G03*
X8944948Y-6474948I-15000J0D01*
G01*
X9005052Y-6535052D02*
G75*
G03*
X9005052Y-6535052I-15000J0D01*
G01*
X9015000Y-7100000D02*
G75*
G03*
X9015000Y-7100000I-15000J0D01*
G01*
X9054800Y-10648800D02*
G75*
G03*
X9054800Y-10648800I-15000J0D01*
G01*
X9065000Y-9100000D02*
G75*
G03*
X9065000Y-9100000I-15000J0D01*
G01*
X9065000Y-9300000D02*
G75*
G03*
X9065000Y-9300000I-15000J0D01*
G01*
X9115000Y-14050000D02*
G75*
G03*
X9115000Y-14050000I-15000J0D01*
G01*
X9115000Y-14200000D02*
G75*
G03*
X9115000Y-14200000I-15000J0D01*
G01*
X9156000Y-10638000D02*
G75*
G03*
X9156000Y-10638000I-15000J0D01*
G01*
X9214000Y-10046000D02*
G75*
G03*
X9214000Y-10046000I-15000J0D01*
G01*
X9215000Y-7100000D02*
G75*
G03*
X9215000Y-7100000I-15000J0D01*
G01*
X9247000Y-7326000D02*
G75*
G03*
X9247000Y-7326000I-15000J0D01*
G01*
X9255000Y-6520000D02*
G75*
G03*
X9255000Y-6520000I-15000J0D01*
G01*
X9315000Y-14050000D02*
G75*
G03*
X9315000Y-14050000I-15000J0D01*
G01*
X9315000Y-14200000D02*
G75*
G03*
X9315000Y-14200000I-15000J0D01*
G01*
X9322000Y-10726000D02*
G75*
G03*
X9322000Y-10726000I-15000J0D01*
G01*
X9365000Y-10047000D02*
G75*
G03*
X9365000Y-10047000I-15000J0D01*
G01*
X9405000Y-6530000D02*
G75*
G03*
X9405000Y-6530000I-15000J0D01*
G01*
X9615000Y-8400000D02*
G75*
G03*
X9615000Y-8400000I-15000J0D01*
G01*
X9615000Y-8650000D02*
G75*
G03*
X9615000Y-8650000I-15000J0D01*
G01*
X9615000Y-8900000D02*
G75*
G03*
X9615000Y-8900000I-15000J0D01*
G01*
X9664720Y-10110280D02*
G75*
G03*
X9664720Y-10110280I-15000J0D01*
G01*
X9671000Y-13090000D02*
G75*
G03*
X9671000Y-13090000I-15000J0D01*
G01*
X9671000Y-13400000D02*
G75*
G03*
X9671000Y-13400000I-15000J0D01*
G01*
X9671000Y-13536910D02*
G75*
G03*
X9671000Y-13536910I-15000J0D01*
G01*
X9672000Y-11076000D02*
G75*
G03*
X9672000Y-11076000I-15000J0D01*
G01*
X9672000Y-11326000D02*
G75*
G03*
X9672000Y-11326000I-15000J0D01*
G01*
X9672000Y-11626000D02*
G75*
G03*
X9672000Y-11626000I-15000J0D01*
G01*
X9672000Y-11776000D02*
G75*
G03*
X9672000Y-11776000I-15000J0D01*
G01*
X9672000Y-12476000D02*
G75*
G03*
X9672000Y-12476000I-15000J0D01*
G01*
X9672000Y-12676000D02*
G75*
G03*
X9672000Y-12676000I-15000J0D01*
G01*
X9673000Y-12957000D02*
G75*
G03*
X9673000Y-12957000I-15000J0D01*
G01*
X9674000Y-12063000D02*
G75*
G03*
X9674000Y-12063000I-15000J0D01*
G01*
X9674000Y-12195000D02*
G75*
G03*
X9674000Y-12195000I-15000J0D01*
G01*
X9690000Y-6745000D02*
G75*
G03*
X9690000Y-6745000I-15000J0D01*
G01*
X9735000Y-6605000D02*
G75*
G03*
X9735000Y-6605000I-15000J0D01*
G01*
X9745000Y-10200000D02*
G75*
G03*
X9745000Y-10200000I-15000J0D01*
G01*
X9823000Y-10125000D02*
G75*
G03*
X9823000Y-10125000I-15000J0D01*
G01*
X9934000Y-10643000D02*
G75*
G03*
X9934000Y-10643000I-15000J0D01*
G01*
X9976000Y-10569000D02*
G75*
G03*
X9976000Y-10569000I-15000J0D01*
G01*
X10065000Y-8400000D02*
G75*
G03*
X10065000Y-8400000I-15000J0D01*
G01*
X10065000Y-8650000D02*
G75*
G03*
X10065000Y-8650000I-15000J0D01*
G01*
X10065000Y-8900000D02*
G75*
G03*
X10065000Y-8900000I-15000J0D01*
G01*
X10068000Y-10067944D02*
G75*
G03*
X10068000Y-10067944I-15000J0D01*
G01*
X10085000Y-11057000D02*
G75*
G03*
X10085000Y-11057000I-15000J0D01*
G01*
X10142000Y-11914000D02*
G75*
G03*
X10142000Y-11914000I-15000J0D01*
G01*
X10165000Y-12500000D02*
G75*
G03*
X10165000Y-12500000I-15000J0D01*
G01*
X10215000Y-12850000D02*
G75*
G03*
X10215000Y-12850000I-15000J0D01*
G01*
X10230000Y-11534000D02*
G75*
G03*
X10230000Y-11534000I-15000J0D01*
G01*
X10243000Y-10781000D02*
G75*
G03*
X10243000Y-10781000I-15000J0D01*
G01*
X10254000Y-10074580D02*
G75*
G03*
X10254000Y-10074580I-15000J0D01*
G01*
X10263000Y-10929000D02*
G75*
G03*
X10263000Y-10929000I-15000J0D01*
G01*
X10332000Y-10675000D02*
G75*
G03*
X10332000Y-10675000I-15000J0D01*
G01*
X10398000Y-11058000D02*
G75*
G03*
X10398000Y-11058000I-15000J0D01*
G01*
X10405000Y-10924000D02*
G75*
G03*
X10405000Y-10924000I-15000J0D01*
G01*
X10415000Y-12650000D02*
G75*
G03*
X10415000Y-12650000I-15000J0D01*
G01*
X10518324Y-8873324D02*
G75*
G03*
X10518324Y-8873324I-15000J0D01*
G01*
X10536000Y-11414000D02*
G75*
G03*
X10536000Y-11414000I-15000J0D01*
G01*
X10625000Y-9488000D02*
G75*
G03*
X10625000Y-9488000I-15000J0D01*
G01*
X10652000Y-11282000D02*
G75*
G03*
X10652000Y-11282000I-15000J0D01*
G01*
X10665000Y-13000000D02*
G75*
G03*
X10665000Y-13000000I-15000J0D01*
G01*
X10665000Y-13100000D02*
G75*
G03*
X10665000Y-13100000I-15000J0D01*
G01*
X10715000Y-11500000D02*
G75*
G03*
X10715000Y-11500000I-15000J0D01*
G01*
X10715000Y-11600000D02*
G75*
G03*
X10715000Y-11600000I-15000J0D01*
G01*
X10715000Y-11700000D02*
G75*
G03*
X10715000Y-11700000I-15000J0D01*
G01*
X10715000Y-11800000D02*
G75*
G03*
X10715000Y-11800000I-15000J0D01*
G01*
X10715000Y-12150000D02*
G75*
G03*
X10715000Y-12150000I-15000J0D01*
G01*
X10715000Y-12250000D02*
G75*
G03*
X10715000Y-12250000I-15000J0D01*
G01*
X10715000Y-12350000D02*
G75*
G03*
X10715000Y-12350000I-15000J0D01*
G01*
X10715000Y-12450000D02*
G75*
G03*
X10715000Y-12450000I-15000J0D01*
G01*
X10720000Y-14551000D02*
G75*
G03*
X10720000Y-14551000I-15000J0D01*
G01*
X10815000Y-11500000D02*
G75*
G03*
X10815000Y-11500000I-15000J0D01*
G01*
X10815000Y-11600000D02*
G75*
G03*
X10815000Y-11600000I-15000J0D01*
G01*
X10815000Y-11700000D02*
G75*
G03*
X10815000Y-11700000I-15000J0D01*
G01*
X10815000Y-11800000D02*
G75*
G03*
X10815000Y-11800000I-15000J0D01*
G01*
X10815000Y-12150000D02*
G75*
G03*
X10815000Y-12150000I-15000J0D01*
G01*
X10815000Y-12250000D02*
G75*
G03*
X10815000Y-12250000I-15000J0D01*
G01*
X10815000Y-12350000D02*
G75*
G03*
X10815000Y-12350000I-15000J0D01*
G01*
X10815000Y-12450000D02*
G75*
G03*
X10815000Y-12450000I-15000J0D01*
G01*
X10820000Y-14701000D02*
G75*
G03*
X10820000Y-14701000I-15000J0D01*
G01*
X10856000Y-10758000D02*
G75*
G03*
X10856000Y-10758000I-15000J0D01*
G01*
X10865000Y-13000000D02*
G75*
G03*
X10865000Y-13000000I-15000J0D01*
G01*
X10865000Y-13100000D02*
G75*
G03*
X10865000Y-13100000I-15000J0D01*
G01*
X10866409Y-11263591D02*
G75*
G03*
X10866409Y-11263591I-15000J0D01*
G01*
X10915000Y-8400000D02*
G75*
G03*
X10915000Y-8400000I-15000J0D01*
G01*
X10915000Y-10200000D02*
G75*
G03*
X10915000Y-10200000I-15000J0D01*
G01*
X10920000Y-14551000D02*
G75*
G03*
X10920000Y-14551000I-15000J0D01*
G01*
X10938000Y-9140000D02*
G75*
G03*
X10938000Y-9140000I-15000J0D01*
G01*
X11020000Y-14701000D02*
G75*
G03*
X11020000Y-14701000I-15000J0D01*
G01*
X11058500Y-8567500D02*
G75*
G03*
X11058500Y-8567500I-15000J0D01*
G01*
X11065000Y-13000000D02*
G75*
G03*
X11065000Y-13000000I-15000J0D01*
G01*
X11065000Y-13100000D02*
G75*
G03*
X11065000Y-13100000I-15000J0D01*
G01*
X11090000Y-10136000D02*
G75*
G03*
X11090000Y-10136000I-15000J0D01*
G01*
X11120000Y-14551000D02*
G75*
G03*
X11120000Y-14551000I-15000J0D01*
G01*
X11165000Y-6600000D02*
G75*
G03*
X11165000Y-6600000I-15000J0D01*
G01*
X11220000Y-14701000D02*
G75*
G03*
X11220000Y-14701000I-15000J0D01*
G01*
X11245000Y-8780000D02*
G75*
G03*
X11245000Y-8780000I-15000J0D01*
G01*
X11250000Y-10131000D02*
G75*
G03*
X11250000Y-10131000I-15000J0D01*
G01*
X11265000Y-13000000D02*
G75*
G03*
X11265000Y-13000000I-15000J0D01*
G01*
X11265000Y-13100000D02*
G75*
G03*
X11265000Y-13100000I-15000J0D01*
G01*
X11291000Y-11338000D02*
G75*
G03*
X11291000Y-11338000I-15000J0D01*
G01*
X11292000Y-10996000D02*
G75*
G03*
X11292000Y-10996000I-15000J0D01*
G01*
X11315000Y-11750000D02*
G75*
G03*
X11315000Y-11750000I-15000J0D01*
G01*
X11320000Y-14551000D02*
G75*
G03*
X11320000Y-14551000I-15000J0D01*
G01*
X11343400Y-6845300D02*
G75*
G03*
X11343400Y-6845300I-15000J0D01*
G01*
X11343400Y-7086600D02*
G75*
G03*
X11343400Y-7086600I-15000J0D01*
G01*
X11420000Y-14701000D02*
G75*
G03*
X11420000Y-14701000I-15000J0D01*
G01*
X11425000Y-11170000D02*
G75*
G03*
X11425000Y-11170000I-15000J0D01*
G01*
X11459000Y-10353000D02*
G75*
G03*
X11459000Y-10353000I-15000J0D01*
G01*
X11465000Y-13000000D02*
G75*
G03*
X11465000Y-13000000I-15000J0D01*
G01*
X11465000Y-13100000D02*
G75*
G03*
X11465000Y-13100000I-15000J0D01*
G01*
X11493000Y-9486000D02*
G75*
G03*
X11493000Y-9486000I-15000J0D01*
G01*
X11515000Y-10200000D02*
G75*
G03*
X11515000Y-10200000I-15000J0D01*
G01*
X11515000Y-11150000D02*
G75*
G03*
X11515000Y-11150000I-15000J0D01*
G01*
X11517000Y-9396000D02*
G75*
G03*
X11517000Y-9396000I-15000J0D01*
G01*
X11520000Y-14551000D02*
G75*
G03*
X11520000Y-14551000I-15000J0D01*
G01*
X11530000Y-10815000D02*
G75*
G03*
X11530000Y-10815000I-15000J0D01*
G01*
X11533900Y-6578600D02*
G75*
G03*
X11533900Y-6578600I-15000J0D01*
G01*
X11572000Y-10032000D02*
G75*
G03*
X11572000Y-10032000I-15000J0D01*
G01*
X11620000Y-14701000D02*
G75*
G03*
X11620000Y-14701000I-15000J0D01*
G01*
X11659674Y-10317326D02*
G75*
G03*
X11659674Y-10317326I-15000J0D01*
G01*
X11665000Y-11350000D02*
G75*
G03*
X11665000Y-11350000I-15000J0D01*
G01*
X11665000Y-11450000D02*
G75*
G03*
X11665000Y-11450000I-15000J0D01*
G01*
X11665000Y-13000000D02*
G75*
G03*
X11665000Y-13000000I-15000J0D01*
G01*
X11665000Y-13100000D02*
G75*
G03*
X11665000Y-13100000I-15000J0D01*
G01*
X11715000Y-10200000D02*
G75*
G03*
X11715000Y-10200000I-15000J0D01*
G01*
X11720000Y-14551000D02*
G75*
G03*
X11720000Y-14551000I-15000J0D01*
G01*
X11729000Y-10044090D02*
G75*
G03*
X11729000Y-10044090I-15000J0D01*
G01*
X11805000Y-8780000D02*
G75*
G03*
X11805000Y-8780000I-15000J0D01*
G01*
X11808474Y-9108692D02*
G75*
G03*
X11808474Y-9108692I-15000J0D01*
G01*
X11815000Y-8900000D02*
G75*
G03*
X11815000Y-8900000I-15000J0D01*
G01*
X11815000Y-11350000D02*
G75*
G03*
X11815000Y-11350000I-15000J0D01*
G01*
X11815000Y-11450000D02*
G75*
G03*
X11815000Y-11450000I-15000J0D01*
G01*
X11819000Y-9966000D02*
G75*
G03*
X11819000Y-9966000I-15000J0D01*
G01*
X11852000Y-10232000D02*
G75*
G03*
X11852000Y-10232000I-15000J0D01*
G01*
X11865000Y-10708000D02*
G75*
G03*
X11865000Y-10708000I-15000J0D01*
G01*
X12005000Y-6220000D02*
G75*
G03*
X12005000Y-6220000I-15000J0D01*
G01*
X12039000Y-6958000D02*
G75*
G03*
X12039000Y-6958000I-15000J0D01*
G01*
X12124948Y-6189948D02*
G75*
G03*
X12124948Y-6189948I-15000J0D01*
G01*
X12128000Y-6965000D02*
G75*
G03*
X12128000Y-6965000I-15000J0D01*
G01*
X12140000Y-11038000D02*
G75*
G03*
X12140000Y-11038000I-15000J0D01*
G01*
X12145000Y-10549000D02*
G75*
G03*
X12145000Y-10549000I-15000J0D01*
G01*
X12150000Y-10895000D02*
G75*
G03*
X12150000Y-10895000I-15000J0D01*
G01*
X12157000Y-10784000D02*
G75*
G03*
X12157000Y-10784000I-15000J0D01*
G01*
X12185052Y-6250052D02*
G75*
G03*
X12185052Y-6250052I-15000J0D01*
G01*
X12190000Y-10044090D02*
G75*
G03*
X12190000Y-10044090I-15000J0D01*
G01*
X12215000Y-8765000D02*
G75*
G03*
X12215000Y-8765000I-15000J0D01*
G01*
X12215000Y-13500000D02*
G75*
G03*
X12215000Y-13500000I-15000J0D01*
G01*
X12232000Y-11082000D02*
G75*
G03*
X12232000Y-11082000I-15000J0D01*
G01*
X12305000Y-8770000D02*
G75*
G03*
X12305000Y-8770000I-15000J0D01*
G01*
X12317000Y-10192030D02*
G75*
G03*
X12317000Y-10192030I-15000J0D01*
G01*
X12321183Y-6403755D02*
G75*
G03*
X12321183Y-6403755I-15000J0D01*
G01*
X12321846Y-6487874D02*
G75*
G03*
X12321846Y-6487874I-15000J0D01*
G01*
X12366000Y-7518000D02*
G75*
G03*
X12366000Y-7518000I-15000J0D01*
G01*
X12415000Y-13300000D02*
G75*
G03*
X12415000Y-13300000I-15000J0D01*
G01*
X12415000Y-13500000D02*
G75*
G03*
X12415000Y-13500000I-15000J0D01*
G01*
X12415000Y-13700000D02*
G75*
G03*
X12415000Y-13700000I-15000J0D01*
G01*
X12422000Y-6514000D02*
G75*
G03*
X12422000Y-6514000I-15000J0D01*
G01*
X12434000Y-6987000D02*
G75*
G03*
X12434000Y-6987000I-15000J0D01*
G01*
X12461000Y-9144000D02*
G75*
G03*
X12461000Y-9144000I-15000J0D01*
G01*
X12465000Y-8950000D02*
G75*
G03*
X12465000Y-8950000I-15000J0D01*
G01*
X12465000Y-9055000D02*
G75*
G03*
X12465000Y-9055000I-15000J0D01*
G01*
X12465000Y-10192030D02*
G75*
G03*
X12465000Y-10192030I-15000J0D01*
G01*
X12476000Y-7100000D02*
G75*
G03*
X12476000Y-7100000I-15000J0D01*
G01*
X12487000Y-6857000D02*
G75*
G03*
X12487000Y-6857000I-15000J0D01*
G01*
X12510000Y-8800000D02*
G75*
G03*
X12510000Y-8800000I-15000J0D01*
G01*
X12519000Y-6463000D02*
G75*
G03*
X12519000Y-6463000I-15000J0D01*
G01*
X12520000Y-6987000D02*
G75*
G03*
X12520000Y-6987000I-15000J0D01*
G01*
X12520910Y-11050000D02*
G75*
G03*
X12520910Y-11050000I-15000J0D01*
G01*
X12555000Y-8320000D02*
G75*
G03*
X12555000Y-8320000I-15000J0D01*
G01*
X12585000Y-10073000D02*
G75*
G03*
X12585000Y-10073000I-15000J0D01*
G01*
X12615000Y-13500000D02*
G75*
G03*
X12615000Y-13500000I-15000J0D01*
G01*
X12644000Y-6523000D02*
G75*
G03*
X12644000Y-6523000I-15000J0D01*
G01*
X12656000Y-7460000D02*
G75*
G03*
X12656000Y-7460000I-15000J0D01*
G01*
X12698000Y-7362000D02*
G75*
G03*
X12698000Y-7362000I-15000J0D01*
G01*
X12706000Y-6983000D02*
G75*
G03*
X12706000Y-6983000I-15000J0D01*
G01*
X12726000Y-11589000D02*
G75*
G03*
X12726000Y-11589000I-15000J0D01*
G01*
X12784000Y-12965000D02*
G75*
G03*
X12784000Y-12965000I-15000J0D01*
G01*
X12809000Y-10425000D02*
G75*
G03*
X12809000Y-10425000I-15000J0D01*
G01*
X12830000Y-8335000D02*
G75*
G03*
X12830000Y-8335000I-15000J0D01*
G01*
X12834000Y-12888000D02*
G75*
G03*
X12834000Y-12888000I-15000J0D01*
G01*
X12835000Y-8775000D02*
G75*
G03*
X12835000Y-8775000I-15000J0D01*
G01*
X12842000Y-13034000D02*
G75*
G03*
X12842000Y-13034000I-15000J0D01*
G01*
X12864034Y-11110034D02*
G75*
G03*
X12864034Y-11110034I-15000J0D01*
G01*
X12885000Y-12965000D02*
G75*
G03*
X12885000Y-12965000I-15000J0D01*
G01*
X13265000Y-11050000D02*
G75*
G03*
X13265000Y-11050000I-15000J0D01*
G01*
X13501000Y-10752000D02*
G75*
G03*
X13501000Y-10752000I-15000J0D01*
G01*
X13514000Y-10215000D02*
G75*
G03*
X13514000Y-10215000I-15000J0D01*
G01*
X13561000Y-11022000D02*
G75*
G03*
X13561000Y-11022000I-15000J0D01*
G01*
X14115000Y-9700000D02*
G75*
G03*
X14115000Y-9700000I-15000J0D01*
G01*
X14115000Y-9800000D02*
G75*
G03*
X14115000Y-9800000I-15000J0D01*
G01*
X14115000Y-9900000D02*
G75*
G03*
X14115000Y-9900000I-15000J0D01*
G01*
X14115000Y-10000000D02*
G75*
G03*
X14115000Y-10000000I-15000J0D01*
G01*
X14115000Y-10100000D02*
G75*
G03*
X14115000Y-10100000I-15000J0D01*
G01*
D14*
X10972800Y-6934600D02*
X10972800Y-6984600D01*
X10947800Y-6959600D02*
X10997800Y-6959600D01*
X12979400Y-6921900D02*
X12979400Y-6971900D01*
X12954400Y-6946900D02*
X13004400Y-6946900D01*
X13375780Y-6688585D02*
X13375780Y-6738585D01*
X13350780Y-6713585D02*
X13400780Y-6713585D01*
D10*
X8669076Y-9683216D02*
X8669076Y-9612504D01*
X8598364Y-9612504D01*
X8598364Y-9683216D01*
X8669076Y-9683216D01*
X8669076Y-9937216D02*
X8669076Y-9866504D01*
X8598364Y-9866504D01*
X8598364Y-9937216D01*
X8669076Y-9937216D01*
X8821156Y-10931756D02*
X8821156Y-10861044D01*
X8750444Y-10861044D01*
X8750444Y-10931756D01*
X8821156Y-10931756D01*
X8821156Y-11361356D02*
X8821156Y-11290644D01*
X8750444Y-11290644D01*
X8750444Y-11361356D01*
X8821156Y-11361356D01*
X8821156Y-11811356D02*
X8821156Y-11740644D01*
X8750444Y-11740644D01*
X8750444Y-11811356D01*
X8821156Y-11811356D01*
X8821156Y-12261356D02*
X8821156Y-12190644D01*
X8750444Y-12190644D01*
X8750444Y-12261356D01*
X8821156Y-12261356D01*
X8821156Y-12711356D02*
X8821156Y-12640644D01*
X8750444Y-12640644D01*
X8750444Y-12711356D01*
X8821156Y-12711356D01*
X8821156Y-13161356D02*
X8821156Y-13090644D01*
X8750444Y-13090644D01*
X8750444Y-13161356D01*
X8821156Y-13161356D01*
X8821156Y-13611356D02*
X8821156Y-13540644D01*
X8750444Y-13540644D01*
X8750444Y-13611356D01*
X8821156Y-13611356D01*
X8923076Y-9683216D02*
X8923076Y-9612504D01*
X8852364Y-9612504D01*
X8852364Y-9683216D01*
X8923076Y-9683216D01*
X8923076Y-9937216D02*
X8923076Y-9866504D01*
X8852364Y-9866504D01*
X8852364Y-9937216D01*
X8923076Y-9937216D01*
X9075156Y-10931756D02*
X9075156Y-10861044D01*
X9004444Y-10861044D01*
X9004444Y-10931756D01*
X9075156Y-10931756D01*
X9075156Y-11361356D02*
X9075156Y-11290644D01*
X9004444Y-11290644D01*
X9004444Y-11361356D01*
X9075156Y-11361356D01*
X9075156Y-11811356D02*
X9075156Y-11740644D01*
X9004444Y-11740644D01*
X9004444Y-11811356D01*
X9075156Y-11811356D01*
X9075156Y-12261356D02*
X9075156Y-12190644D01*
X9004444Y-12190644D01*
X9004444Y-12261356D01*
X9075156Y-12261356D01*
X9075156Y-12711356D02*
X9075156Y-12640644D01*
X9004444Y-12640644D01*
X9004444Y-12711356D01*
X9075156Y-12711356D01*
X9075156Y-13161356D02*
X9075156Y-13090644D01*
X9004444Y-13090644D01*
X9004444Y-13161356D01*
X9075156Y-13161356D01*
X9075156Y-13611356D02*
X9075156Y-13540644D01*
X9004444Y-13540644D01*
X9004444Y-13611356D01*
X9075156Y-13611356D01*
X9177076Y-9683216D02*
X9177076Y-9612504D01*
X9106364Y-9612504D01*
X9106364Y-9683216D01*
X9177076Y-9683216D01*
X9177076Y-9937216D02*
X9177076Y-9866504D01*
X9106364Y-9866504D01*
X9106364Y-9937216D01*
X9177076Y-9937216D01*
X9431076Y-9683216D02*
X9431076Y-9612504D01*
X9360364Y-9612504D01*
X9360364Y-9683216D01*
X9431076Y-9683216D01*
X9431076Y-9937216D02*
X9431076Y-9866504D01*
X9360364Y-9866504D01*
X9360364Y-9937216D01*
X9431076Y-9937216D01*
X9685076Y-9683216D02*
X9685076Y-9612504D01*
X9614364Y-9612504D01*
X9614364Y-9683216D01*
X9685076Y-9683216D01*
X9685076Y-9937216D02*
X9685076Y-9866504D01*
X9614364Y-9866504D01*
X9614364Y-9937216D01*
X9685076Y-9937216D01*
X9711356Y-10435356D02*
X9711356Y-10364644D01*
X9640644Y-10364644D01*
X9640644Y-10435356D01*
X9711356Y-10435356D01*
X9939076Y-9683216D02*
X9939076Y-9612504D01*
X9868364Y-9612504D01*
X9868364Y-9683216D01*
X9939076Y-9683216D01*
X9939076Y-9937216D02*
X9939076Y-9866504D01*
X9868364Y-9866504D01*
X9868364Y-9937216D01*
X9939076Y-9937216D01*
X9965356Y-10435356D02*
X9965356Y-10364644D01*
X9894644Y-10364644D01*
X9894644Y-10435356D01*
X9965356Y-10435356D01*
X10193076Y-9683216D02*
X10193076Y-9612504D01*
X10122364Y-9612504D01*
X10122364Y-9683216D01*
X10193076Y-9683216D01*
X10193076Y-9937216D02*
X10193076Y-9866504D01*
X10122364Y-9866504D01*
X10122364Y-9937216D01*
X10193076Y-9937216D01*
X10219356Y-10435356D02*
X10219356Y-10364644D01*
X10148644Y-10364644D01*
X10148644Y-10435356D01*
X10219356Y-10435356D01*
X10447076Y-9683216D02*
X10447076Y-9612504D01*
X10376364Y-9612504D01*
X10376364Y-9683216D01*
X10447076Y-9683216D01*
X10447076Y-9937216D02*
X10447076Y-9866504D01*
X10376364Y-9866504D01*
X10376364Y-9937216D01*
X10447076Y-9937216D01*
X10473356Y-10435356D02*
X10473356Y-10364644D01*
X10402644Y-10364644D01*
X10402644Y-10435356D01*
X10473356Y-10435356D01*
X10701076Y-9683216D02*
X10701076Y-9612504D01*
X10630364Y-9612504D01*
X10630364Y-9683216D01*
X10701076Y-9683216D01*
X10701076Y-9937216D02*
X10701076Y-9866504D01*
X10630364Y-9866504D01*
X10630364Y-9937216D01*
X10701076Y-9937216D01*
X10727356Y-10435356D02*
X10727356Y-10364644D01*
X10656644Y-10364644D01*
X10656644Y-10435356D01*
X10727356Y-10435356D01*
X10955076Y-9683216D02*
X10955076Y-9612504D01*
X10884364Y-9612504D01*
X10884364Y-9683216D01*
X10955076Y-9683216D01*
X10955076Y-9937216D02*
X10955076Y-9866504D01*
X10884364Y-9866504D01*
X10884364Y-9937216D01*
X10955076Y-9937216D01*
X10981356Y-10435356D02*
X10981356Y-10364644D01*
X10910644Y-10364644D01*
X10910644Y-10435356D01*
X10981356Y-10435356D01*
X11209076Y-9683216D02*
X11209076Y-9612504D01*
X11138364Y-9612504D01*
X11138364Y-9683216D01*
X11209076Y-9683216D01*
X11209076Y-9937216D02*
X11209076Y-9866504D01*
X11138364Y-9866504D01*
X11138364Y-9937216D01*
X11209076Y-9937216D01*
X11235356Y-10435356D02*
X11235356Y-10364644D01*
X11164644Y-10364644D01*
X11164644Y-10435356D01*
X11235356Y-10435356D01*
X11463076Y-9683216D02*
X11463076Y-9612504D01*
X11392364Y-9612504D01*
X11392364Y-9683216D01*
X11463076Y-9683216D01*
X11463076Y-9937216D02*
X11463076Y-9866504D01*
X11392364Y-9866504D01*
X11392364Y-9937216D01*
X11463076Y-9937216D01*
X11665356Y-12055356D02*
X11665356Y-11984644D01*
X11594644Y-11984644D01*
X11594644Y-12055356D01*
X11665356Y-12055356D01*
X11665356Y-12309356D02*
X11665356Y-12238644D01*
X11594644Y-12238644D01*
X11594644Y-12309356D01*
X11665356Y-12309356D01*
X11717076Y-9683216D02*
X11717076Y-9612504D01*
X11646364Y-9612504D01*
X11646364Y-9683216D01*
X11717076Y-9683216D01*
X11717076Y-9937216D02*
X11717076Y-9866504D01*
X11646364Y-9866504D01*
X11646364Y-9937216D01*
X11717076Y-9937216D01*
X11919356Y-12055356D02*
X11919356Y-11984644D01*
X11848644Y-11984644D01*
X11848644Y-12055356D01*
X11919356Y-12055356D01*
X11919356Y-12309356D02*
X11919356Y-12238644D01*
X11848644Y-12238644D01*
X11848644Y-12309356D01*
X11919356Y-12309356D01*
X11971076Y-9683216D02*
X11971076Y-9612504D01*
X11900364Y-9612504D01*
X11900364Y-9683216D01*
X11971076Y-9683216D01*
X11971076Y-9937216D02*
X11971076Y-9866504D01*
X11900364Y-9866504D01*
X11900364Y-9937216D01*
X11971076Y-9937216D01*
X12173356Y-12055356D02*
X12173356Y-11984644D01*
X12102644Y-11984644D01*
X12102644Y-12055356D01*
X12173356Y-12055356D01*
X12173356Y-12309356D02*
X12173356Y-12238644D01*
X12102644Y-12238644D01*
X12102644Y-12309356D01*
X12173356Y-12309356D01*
X12225076Y-9683216D02*
X12225076Y-9612504D01*
X12154364Y-9612504D01*
X12154364Y-9683216D01*
X12225076Y-9683216D01*
X12225076Y-9937216D02*
X12225076Y-9866504D01*
X12154364Y-9866504D01*
X12154364Y-9937216D01*
X12225076Y-9937216D01*
X12479076Y-9683216D02*
X12479076Y-9612504D01*
X12408364Y-9612504D01*
X12408364Y-9683216D01*
X12479076Y-9683216D01*
X12479076Y-9937216D02*
X12479076Y-9866504D01*
X12408364Y-9866504D01*
X12408364Y-9937216D01*
X12479076Y-9937216D01*
X12733076Y-9683216D02*
X12733076Y-9612504D01*
X12662364Y-9612504D01*
X12662364Y-9683216D01*
X12733076Y-9683216D01*
X12733076Y-9937216D02*
X12733076Y-9866504D01*
X12662364Y-9866504D01*
X12662364Y-9937216D01*
X12733076Y-9937216D01*
X12987076Y-9683216D02*
X12987076Y-9612504D01*
X12916364Y-9612504D01*
X12916364Y-9683216D01*
X12987076Y-9683216D01*
X12987076Y-9937216D02*
X12987076Y-9866504D01*
X12916364Y-9866504D01*
X12916364Y-9937216D01*
X12987076Y-9937216D01*
X13059856Y-7274356D02*
X13059856Y-7203644D01*
X12989144Y-7203644D01*
X12989144Y-7274356D01*
X13059856Y-7274356D01*
X13059856Y-7528356D02*
X13059856Y-7457644D01*
X12989144Y-7457644D01*
X12989144Y-7528356D01*
X13059856Y-7528356D01*
X13059856Y-8036356D02*
X13059856Y-7965644D01*
X12989144Y-7965644D01*
X12989144Y-8036356D01*
X13059856Y-8036356D01*
X13059856Y-8290356D02*
X13059856Y-8219644D01*
X12989144Y-8219644D01*
X12989144Y-8290356D01*
X13059856Y-8290356D01*
X13059856Y-8544356D02*
X13059856Y-8473644D01*
X12989144Y-8473644D01*
X12989144Y-8544356D01*
X13059856Y-8544356D01*
X13059856Y-8798356D02*
X13059856Y-8727644D01*
X12989144Y-8727644D01*
X12989144Y-8798356D01*
X13059856Y-8798356D01*
X13059856Y-9052356D02*
X13059856Y-8981644D01*
X12989144Y-8981644D01*
X12989144Y-9052356D01*
X13059856Y-9052356D01*
X13059856Y-9306356D02*
X13059856Y-9235644D01*
X12989144Y-9235644D01*
X12989144Y-9306356D01*
X13059856Y-9306356D01*
X13065356Y-10885356D02*
X13065356Y-10814644D01*
X12994644Y-10814644D01*
X12994644Y-10885356D01*
X13065356Y-10885356D01*
X13070356Y-10435356D02*
X13070356Y-10364644D01*
X12999644Y-10364644D01*
X12999644Y-10435356D01*
X13070356Y-10435356D01*
X13070356Y-11435356D02*
X13070356Y-11364644D01*
X12999644Y-11364644D01*
X12999644Y-11435356D01*
X13070356Y-11435356D01*
X13070356Y-11885356D02*
X13070356Y-11814644D01*
X12999644Y-11814644D01*
X12999644Y-11885356D01*
X13070356Y-11885356D01*
X13070356Y-12335356D02*
X13070356Y-12264644D01*
X12999644Y-12264644D01*
X12999644Y-12335356D01*
X13070356Y-12335356D01*
X13120356Y-13467356D02*
X13120356Y-13396644D01*
X13049644Y-13396644D01*
X13049644Y-13467356D01*
X13120356Y-13467356D01*
X13241076Y-9683216D02*
X13241076Y-9612504D01*
X13170364Y-9612504D01*
X13170364Y-9683216D01*
X13241076Y-9683216D01*
X13241076Y-9937216D02*
X13241076Y-9866504D01*
X13170364Y-9866504D01*
X13170364Y-9937216D01*
X13241076Y-9937216D01*
X13319356Y-10885356D02*
X13319356Y-10814644D01*
X13248644Y-10814644D01*
X13248644Y-10885356D01*
X13319356Y-10885356D01*
X13324356Y-10435356D02*
X13324356Y-10364644D01*
X13253644Y-10364644D01*
X13253644Y-10435356D01*
X13324356Y-10435356D01*
X13324356Y-11435356D02*
X13324356Y-11364644D01*
X13253644Y-11364644D01*
X13253644Y-11435356D01*
X13324356Y-11435356D01*
X13324356Y-11885356D02*
X13324356Y-11814644D01*
X13253644Y-11814644D01*
X13253644Y-11885356D01*
X13324356Y-11885356D01*
X13324356Y-12335356D02*
X13324356Y-12264644D01*
X13253644Y-12264644D01*
X13253644Y-12335356D01*
X13324356Y-12335356D01*
X13495076Y-9683216D02*
X13495076Y-9612504D01*
X13424364Y-9612504D01*
X13424364Y-9683216D01*
X13495076Y-9683216D01*
X13495076Y-9937216D02*
X13495076Y-9866504D01*
X13424364Y-9866504D01*
X13424364Y-9937216D01*
X13495076Y-9937216D01*
X13880356Y-13467356D02*
X13880356Y-13396644D01*
X13809644Y-13396644D01*
X13809644Y-13467356D01*
X13880356Y-13467356D01*
D15*
X9105200Y-8751800D02*
X9170200Y-8686800D01*
X9105200Y-8621800D01*
X9040200Y-8686800D01*
X9105200Y-8751800D01*
X10605200Y-8251800D02*
X10670200Y-8186800D01*
X10605200Y-8121800D01*
X10540200Y-8186800D01*
X10605200Y-8251800D01*
X10605200Y-9251800D02*
X10670200Y-9186800D01*
X10605200Y-9121800D01*
X10540200Y-9186800D01*
X10605200Y-9251800D01*
D11*
X8064577Y-15314924D02*
X8064577Y-15114924D01*
X8064577Y-15114924D02*
X8112196Y-15114924D01*
X8112196Y-15114924D02*
X8140767Y-15124448D01*
X8140767Y-15124448D02*
X8159815Y-15143495D01*
X8159815Y-15143495D02*
X8169339Y-15162543D01*
X8169339Y-15162543D02*
X8178862Y-15200638D01*
X8178862Y-15200638D02*
X8178862Y-15229209D01*
X8178862Y-15229209D02*
X8169339Y-15267305D01*
X8169339Y-15267305D02*
X8159815Y-15286352D01*
X8159815Y-15286352D02*
X8140767Y-15305400D01*
X8140767Y-15305400D02*
X8112196Y-15314924D01*
X8112196Y-15314924D02*
X8064577Y-15314924D01*
X8264577Y-15314924D02*
X8264577Y-15181590D01*
X8264577Y-15219686D02*
X8274101Y-15200638D01*
X8274101Y-15200638D02*
X8283624Y-15191114D01*
X8283624Y-15191114D02*
X8302672Y-15181590D01*
X8302672Y-15181590D02*
X8321720Y-15181590D01*
X8388386Y-15314924D02*
X8388386Y-15181590D01*
X8388386Y-15114924D02*
X8378862Y-15124448D01*
X8378862Y-15124448D02*
X8388386Y-15133971D01*
X8388386Y-15133971D02*
X8397910Y-15124448D01*
X8397910Y-15124448D02*
X8388386Y-15114924D01*
X8388386Y-15114924D02*
X8388386Y-15133971D01*
X8512196Y-15314924D02*
X8493148Y-15305400D01*
X8493148Y-15305400D02*
X8483624Y-15286352D01*
X8483624Y-15286352D02*
X8483624Y-15114924D01*
X8616958Y-15314924D02*
X8597910Y-15305400D01*
X8597910Y-15305400D02*
X8588386Y-15286352D01*
X8588386Y-15286352D02*
X8588386Y-15114924D01*
X8845529Y-15314924D02*
X8845529Y-15114924D01*
X8845529Y-15114924D02*
X8912196Y-15257781D01*
X8912196Y-15257781D02*
X8978863Y-15114924D01*
X8978863Y-15114924D02*
X8978863Y-15314924D01*
X9159815Y-15314924D02*
X9159815Y-15210162D01*
X9159815Y-15210162D02*
X9150291Y-15191114D01*
X9150291Y-15191114D02*
X9131244Y-15181590D01*
X9131244Y-15181590D02*
X9093148Y-15181590D01*
X9093148Y-15181590D02*
X9074101Y-15191114D01*
X9159815Y-15305400D02*
X9140767Y-15314924D01*
X9140767Y-15314924D02*
X9093148Y-15314924D01*
X9093148Y-15314924D02*
X9074101Y-15305400D01*
X9074101Y-15305400D02*
X9064577Y-15286352D01*
X9064577Y-15286352D02*
X9064577Y-15267305D01*
X9064577Y-15267305D02*
X9074101Y-15248257D01*
X9074101Y-15248257D02*
X9093148Y-15238733D01*
X9093148Y-15238733D02*
X9140767Y-15238733D01*
X9140767Y-15238733D02*
X9159815Y-15229209D01*
X9255053Y-15181590D02*
X9255053Y-15381590D01*
X9255053Y-15191114D02*
X9274101Y-15181590D01*
X9274101Y-15181590D02*
X9312196Y-15181590D01*
X9312196Y-15181590D02*
X9331244Y-15191114D01*
X9331244Y-15191114D02*
X9340767Y-15200638D01*
X9340767Y-15200638D02*
X9350291Y-15219686D01*
X9350291Y-15219686D02*
X9350291Y-15276828D01*
X9350291Y-15276828D02*
X9340767Y-15295876D01*
X9340767Y-15295876D02*
X9331244Y-15305400D01*
X9331244Y-15305400D02*
X9312196Y-15314924D01*
X9312196Y-15314924D02*
X9274101Y-15314924D01*
X9274101Y-15314924D02*
X9255053Y-15305400D01*
X9436005Y-15295876D02*
X9445529Y-15305400D01*
X9445529Y-15305400D02*
X9436005Y-15314924D01*
X9436005Y-15314924D02*
X9426482Y-15305400D01*
X9426482Y-15305400D02*
X9436005Y-15295876D01*
X9436005Y-15295876D02*
X9436005Y-15314924D01*
X9436005Y-15191114D02*
X9445529Y-15200638D01*
X9445529Y-15200638D02*
X9436005Y-15210162D01*
X9436005Y-15210162D02*
X9426482Y-15200638D01*
X9426482Y-15200638D02*
X9436005Y-15191114D01*
X9436005Y-15191114D02*
X9436005Y-15210162D01*
D12*
X7778800Y-15630940D02*
X7803800Y-15655940D01*
X7803800Y-15630940D02*
X7778800Y-15655940D01*
D11*
X8102672Y-15534924D02*
X8121720Y-15534924D01*
X8121720Y-15534924D02*
X8140767Y-15544448D01*
X8140767Y-15544448D02*
X8150291Y-15553971D01*
X8150291Y-15553971D02*
X8159815Y-15573019D01*
X8159815Y-15573019D02*
X8169339Y-15611114D01*
X8169339Y-15611114D02*
X8169339Y-15658733D01*
X8169339Y-15658733D02*
X8159815Y-15696828D01*
X8159815Y-15696828D02*
X8150291Y-15715876D01*
X8150291Y-15715876D02*
X8140767Y-15725400D01*
X8140767Y-15725400D02*
X8121720Y-15734924D01*
X8121720Y-15734924D02*
X8102672Y-15734924D01*
X8102672Y-15734924D02*
X8083624Y-15725400D01*
X8083624Y-15725400D02*
X8074101Y-15715876D01*
X8074101Y-15715876D02*
X8064577Y-15696828D01*
X8064577Y-15696828D02*
X8055053Y-15658733D01*
X8055053Y-15658733D02*
X8055053Y-15611114D01*
X8055053Y-15611114D02*
X8064577Y-15573019D01*
X8064577Y-15573019D02*
X8074101Y-15553971D01*
X8074101Y-15553971D02*
X8083624Y-15544448D01*
X8083624Y-15544448D02*
X8102672Y-15534924D01*
X8255053Y-15715876D02*
X8264577Y-15725400D01*
X8264577Y-15725400D02*
X8255053Y-15734924D01*
X8255053Y-15734924D02*
X8245529Y-15725400D01*
X8245529Y-15725400D02*
X8255053Y-15715876D01*
X8255053Y-15715876D02*
X8255053Y-15734924D01*
X8340767Y-15553971D02*
X8350291Y-15544448D01*
X8350291Y-15544448D02*
X8369339Y-15534924D01*
X8369339Y-15534924D02*
X8416958Y-15534924D01*
X8416958Y-15534924D02*
X8436005Y-15544448D01*
X8436005Y-15544448D02*
X8445529Y-15553971D01*
X8445529Y-15553971D02*
X8455053Y-15573019D01*
X8455053Y-15573019D02*
X8455053Y-15592067D01*
X8455053Y-15592067D02*
X8445529Y-15620638D01*
X8445529Y-15620638D02*
X8331243Y-15734924D01*
X8331243Y-15734924D02*
X8455053Y-15734924D01*
X8636005Y-15534924D02*
X8540767Y-15534924D01*
X8540767Y-15534924D02*
X8531244Y-15630162D01*
X8531244Y-15630162D02*
X8540767Y-15620638D01*
X8540767Y-15620638D02*
X8559815Y-15611114D01*
X8559815Y-15611114D02*
X8607434Y-15611114D01*
X8607434Y-15611114D02*
X8626482Y-15620638D01*
X8626482Y-15620638D02*
X8636005Y-15630162D01*
X8636005Y-15630162D02*
X8645529Y-15649209D01*
X8645529Y-15649209D02*
X8645529Y-15696828D01*
X8645529Y-15696828D02*
X8636005Y-15715876D01*
X8636005Y-15715876D02*
X8626482Y-15725400D01*
X8626482Y-15725400D02*
X8607434Y-15734924D01*
X8607434Y-15734924D02*
X8559815Y-15734924D01*
X8559815Y-15734924D02*
X8540767Y-15725400D01*
X8540767Y-15725400D02*
X8531244Y-15715876D01*
X8769339Y-15534924D02*
X8788386Y-15534924D01*
X8788386Y-15534924D02*
X8807434Y-15544448D01*
X8807434Y-15544448D02*
X8816958Y-15553971D01*
X8816958Y-15553971D02*
X8826482Y-15573019D01*
X8826482Y-15573019D02*
X8836005Y-15611114D01*
X8836005Y-15611114D02*
X8836005Y-15658733D01*
X8836005Y-15658733D02*
X8826482Y-15696828D01*
X8826482Y-15696828D02*
X8816958Y-15715876D01*
X8816958Y-15715876D02*
X8807434Y-15725400D01*
X8807434Y-15725400D02*
X8788386Y-15734924D01*
X8788386Y-15734924D02*
X8769339Y-15734924D01*
X8769339Y-15734924D02*
X8750291Y-15725400D01*
X8750291Y-15725400D02*
X8740767Y-15715876D01*
X8740767Y-15715876D02*
X8731244Y-15696828D01*
X8731244Y-15696828D02*
X8721720Y-15658733D01*
X8721720Y-15658733D02*
X8721720Y-15611114D01*
X8721720Y-15611114D02*
X8731244Y-15573019D01*
X8731244Y-15573019D02*
X8740767Y-15553971D01*
X8740767Y-15553971D02*
X8750291Y-15544448D01*
X8750291Y-15544448D02*
X8769339Y-15534924D01*
X8921720Y-15734924D02*
X8921720Y-15601590D01*
X8921720Y-15620638D02*
X8931244Y-15611114D01*
X8931244Y-15611114D02*
X8950291Y-15601590D01*
X8950291Y-15601590D02*
X8978863Y-15601590D01*
X8978863Y-15601590D02*
X8997910Y-15611114D01*
X8997910Y-15611114D02*
X9007434Y-15630162D01*
X9007434Y-15630162D02*
X9007434Y-15734924D01*
X9007434Y-15630162D02*
X9016958Y-15611114D01*
X9016958Y-15611114D02*
X9036005Y-15601590D01*
X9036005Y-15601590D02*
X9064577Y-15601590D01*
X9064577Y-15601590D02*
X9083625Y-15611114D01*
X9083625Y-15611114D02*
X9093148Y-15630162D01*
X9093148Y-15630162D02*
X9093148Y-15734924D01*
X9188386Y-15734924D02*
X9188386Y-15601590D01*
X9188386Y-15620638D02*
X9197910Y-15611114D01*
X9197910Y-15611114D02*
X9216958Y-15601590D01*
X9216958Y-15601590D02*
X9245529Y-15601590D01*
X9245529Y-15601590D02*
X9264577Y-15611114D01*
X9264577Y-15611114D02*
X9274101Y-15630162D01*
X9274101Y-15630162D02*
X9274101Y-15734924D01*
X9274101Y-15630162D02*
X9283625Y-15611114D01*
X9283625Y-15611114D02*
X9302672Y-15601590D01*
X9302672Y-15601590D02*
X9331244Y-15601590D01*
X9331244Y-15601590D02*
X9350291Y-15611114D01*
X9350291Y-15611114D02*
X9359815Y-15630162D01*
X9359815Y-15630162D02*
X9359815Y-15734924D01*
X9750291Y-15525400D02*
X9578863Y-15782543D01*
X10007434Y-15534924D02*
X10026482Y-15534924D01*
X10026482Y-15534924D02*
X10045529Y-15544448D01*
X10045529Y-15544448D02*
X10055053Y-15553971D01*
X10055053Y-15553971D02*
X10064577Y-15573019D01*
X10064577Y-15573019D02*
X10074101Y-15611114D01*
X10074101Y-15611114D02*
X10074101Y-15658733D01*
X10074101Y-15658733D02*
X10064577Y-15696828D01*
X10064577Y-15696828D02*
X10055053Y-15715876D01*
X10055053Y-15715876D02*
X10045529Y-15725400D01*
X10045529Y-15725400D02*
X10026482Y-15734924D01*
X10026482Y-15734924D02*
X10007434Y-15734924D01*
X10007434Y-15734924D02*
X9988387Y-15725400D01*
X9988387Y-15725400D02*
X9978863Y-15715876D01*
X9978863Y-15715876D02*
X9969339Y-15696828D01*
X9969339Y-15696828D02*
X9959815Y-15658733D01*
X9959815Y-15658733D02*
X9959815Y-15611114D01*
X9959815Y-15611114D02*
X9969339Y-15573019D01*
X9969339Y-15573019D02*
X9978863Y-15553971D01*
X9978863Y-15553971D02*
X9988387Y-15544448D01*
X9988387Y-15544448D02*
X10007434Y-15534924D01*
X10159815Y-15715876D02*
X10169339Y-15725400D01*
X10169339Y-15725400D02*
X10159815Y-15734924D01*
X10159815Y-15734924D02*
X10150291Y-15725400D01*
X10150291Y-15725400D02*
X10159815Y-15715876D01*
X10159815Y-15715876D02*
X10159815Y-15734924D01*
X10293148Y-15534924D02*
X10312196Y-15534924D01*
X10312196Y-15534924D02*
X10331244Y-15544448D01*
X10331244Y-15544448D02*
X10340768Y-15553971D01*
X10340768Y-15553971D02*
X10350291Y-15573019D01*
X10350291Y-15573019D02*
X10359815Y-15611114D01*
X10359815Y-15611114D02*
X10359815Y-15658733D01*
X10359815Y-15658733D02*
X10350291Y-15696828D01*
X10350291Y-15696828D02*
X10340768Y-15715876D01*
X10340768Y-15715876D02*
X10331244Y-15725400D01*
X10331244Y-15725400D02*
X10312196Y-15734924D01*
X10312196Y-15734924D02*
X10293148Y-15734924D01*
X10293148Y-15734924D02*
X10274101Y-15725400D01*
X10274101Y-15725400D02*
X10264577Y-15715876D01*
X10264577Y-15715876D02*
X10255053Y-15696828D01*
X10255053Y-15696828D02*
X10245529Y-15658733D01*
X10245529Y-15658733D02*
X10245529Y-15611114D01*
X10245529Y-15611114D02*
X10255053Y-15573019D01*
X10255053Y-15573019D02*
X10264577Y-15553971D01*
X10264577Y-15553971D02*
X10274101Y-15544448D01*
X10274101Y-15544448D02*
X10293148Y-15534924D01*
X10483625Y-15534924D02*
X10502672Y-15534924D01*
X10502672Y-15534924D02*
X10521720Y-15544448D01*
X10521720Y-15544448D02*
X10531244Y-15553971D01*
X10531244Y-15553971D02*
X10540768Y-15573019D01*
X10540768Y-15573019D02*
X10550291Y-15611114D01*
X10550291Y-15611114D02*
X10550291Y-15658733D01*
X10550291Y-15658733D02*
X10540768Y-15696828D01*
X10540768Y-15696828D02*
X10531244Y-15715876D01*
X10531244Y-15715876D02*
X10521720Y-15725400D01*
X10521720Y-15725400D02*
X10502672Y-15734924D01*
X10502672Y-15734924D02*
X10483625Y-15734924D01*
X10483625Y-15734924D02*
X10464577Y-15725400D01*
X10464577Y-15725400D02*
X10455053Y-15715876D01*
X10455053Y-15715876D02*
X10445529Y-15696828D01*
X10445529Y-15696828D02*
X10436006Y-15658733D01*
X10436006Y-15658733D02*
X10436006Y-15611114D01*
X10436006Y-15611114D02*
X10445529Y-15573019D01*
X10445529Y-15573019D02*
X10455053Y-15553971D01*
X10455053Y-15553971D02*
X10464577Y-15544448D01*
X10464577Y-15544448D02*
X10483625Y-15534924D01*
X10645529Y-15734924D02*
X10683625Y-15734924D01*
X10683625Y-15734924D02*
X10702672Y-15725400D01*
X10702672Y-15725400D02*
X10712196Y-15715876D01*
X10712196Y-15715876D02*
X10731244Y-15687305D01*
X10731244Y-15687305D02*
X10740768Y-15649209D01*
X10740768Y-15649209D02*
X10740768Y-15573019D01*
X10740768Y-15573019D02*
X10731244Y-15553971D01*
X10731244Y-15553971D02*
X10721720Y-15544448D01*
X10721720Y-15544448D02*
X10702672Y-15534924D01*
X10702672Y-15534924D02*
X10664577Y-15534924D01*
X10664577Y-15534924D02*
X10645529Y-15544448D01*
X10645529Y-15544448D02*
X10636006Y-15553971D01*
X10636006Y-15553971D02*
X10626482Y-15573019D01*
X10626482Y-15573019D02*
X10626482Y-15620638D01*
X10626482Y-15620638D02*
X10636006Y-15639686D01*
X10636006Y-15639686D02*
X10645529Y-15649209D01*
X10645529Y-15649209D02*
X10664577Y-15658733D01*
X10664577Y-15658733D02*
X10702672Y-15658733D01*
X10702672Y-15658733D02*
X10721720Y-15649209D01*
X10721720Y-15649209D02*
X10731244Y-15639686D01*
X10731244Y-15639686D02*
X10740768Y-15620638D01*
X10855053Y-15620638D02*
X10836006Y-15611114D01*
X10836006Y-15611114D02*
X10826482Y-15601590D01*
X10826482Y-15601590D02*
X10816958Y-15582543D01*
X10816958Y-15582543D02*
X10816958Y-15573019D01*
X10816958Y-15573019D02*
X10826482Y-15553971D01*
X10826482Y-15553971D02*
X10836006Y-15544448D01*
X10836006Y-15544448D02*
X10855053Y-15534924D01*
X10855053Y-15534924D02*
X10893149Y-15534924D01*
X10893149Y-15534924D02*
X10912196Y-15544448D01*
X10912196Y-15544448D02*
X10921720Y-15553971D01*
X10921720Y-15553971D02*
X10931244Y-15573019D01*
X10931244Y-15573019D02*
X10931244Y-15582543D01*
X10931244Y-15582543D02*
X10921720Y-15601590D01*
X10921720Y-15601590D02*
X10912196Y-15611114D01*
X10912196Y-15611114D02*
X10893149Y-15620638D01*
X10893149Y-15620638D02*
X10855053Y-15620638D01*
X10855053Y-15620638D02*
X10836006Y-15630162D01*
X10836006Y-15630162D02*
X10826482Y-15639686D01*
X10826482Y-15639686D02*
X10816958Y-15658733D01*
X10816958Y-15658733D02*
X10816958Y-15696828D01*
X10816958Y-15696828D02*
X10826482Y-15715876D01*
X10826482Y-15715876D02*
X10836006Y-15725400D01*
X10836006Y-15725400D02*
X10855053Y-15734924D01*
X10855053Y-15734924D02*
X10893149Y-15734924D01*
X10893149Y-15734924D02*
X10912196Y-15725400D01*
X10912196Y-15725400D02*
X10921720Y-15715876D01*
X10921720Y-15715876D02*
X10931244Y-15696828D01*
X10931244Y-15696828D02*
X10931244Y-15658733D01*
X10931244Y-15658733D02*
X10921720Y-15639686D01*
X10921720Y-15639686D02*
X10912196Y-15630162D01*
X10912196Y-15630162D02*
X10893149Y-15620638D01*
X11007434Y-15534924D02*
X11007434Y-15573019D01*
X11083625Y-15534924D02*
X11083625Y-15573019D01*
X11378863Y-15811114D02*
X11369339Y-15801590D01*
X11369339Y-15801590D02*
X11350291Y-15773019D01*
X11350291Y-15773019D02*
X11340768Y-15753971D01*
X11340768Y-15753971D02*
X11331244Y-15725400D01*
X11331244Y-15725400D02*
X11321720Y-15677781D01*
X11321720Y-15677781D02*
X11321720Y-15639686D01*
X11321720Y-15639686D02*
X11331244Y-15592067D01*
X11331244Y-15592067D02*
X11340768Y-15563495D01*
X11340768Y-15563495D02*
X11350291Y-15544448D01*
X11350291Y-15544448D02*
X11369339Y-15515876D01*
X11369339Y-15515876D02*
X11378863Y-15506352D01*
X11540768Y-15534924D02*
X11502672Y-15534924D01*
X11502672Y-15534924D02*
X11483625Y-15544448D01*
X11483625Y-15544448D02*
X11474101Y-15553971D01*
X11474101Y-15553971D02*
X11455053Y-15582543D01*
X11455053Y-15582543D02*
X11445529Y-15620638D01*
X11445529Y-15620638D02*
X11445529Y-15696828D01*
X11445529Y-15696828D02*
X11455053Y-15715876D01*
X11455053Y-15715876D02*
X11464577Y-15725400D01*
X11464577Y-15725400D02*
X11483625Y-15734924D01*
X11483625Y-15734924D02*
X11521720Y-15734924D01*
X11521720Y-15734924D02*
X11540768Y-15725400D01*
X11540768Y-15725400D02*
X11550291Y-15715876D01*
X11550291Y-15715876D02*
X11559815Y-15696828D01*
X11559815Y-15696828D02*
X11559815Y-15649209D01*
X11559815Y-15649209D02*
X11550291Y-15630162D01*
X11550291Y-15630162D02*
X11540768Y-15620638D01*
X11540768Y-15620638D02*
X11521720Y-15611114D01*
X11521720Y-15611114D02*
X11483625Y-15611114D01*
X11483625Y-15611114D02*
X11464577Y-15620638D01*
X11464577Y-15620638D02*
X11455053Y-15630162D01*
X11455053Y-15630162D02*
X11445529Y-15649209D01*
X11797910Y-15734924D02*
X11797910Y-15534924D01*
X11883625Y-15734924D02*
X11883625Y-15630162D01*
X11883625Y-15630162D02*
X11874101Y-15611114D01*
X11874101Y-15611114D02*
X11855053Y-15601590D01*
X11855053Y-15601590D02*
X11826482Y-15601590D01*
X11826482Y-15601590D02*
X11807434Y-15611114D01*
X11807434Y-15611114D02*
X11797910Y-15620638D01*
X12007434Y-15734924D02*
X11988387Y-15725400D01*
X11988387Y-15725400D02*
X11978863Y-15715876D01*
X11978863Y-15715876D02*
X11969339Y-15696828D01*
X11969339Y-15696828D02*
X11969339Y-15639686D01*
X11969339Y-15639686D02*
X11978863Y-15620638D01*
X11978863Y-15620638D02*
X11988387Y-15611114D01*
X11988387Y-15611114D02*
X12007434Y-15601590D01*
X12007434Y-15601590D02*
X12036006Y-15601590D01*
X12036006Y-15601590D02*
X12055053Y-15611114D01*
X12055053Y-15611114D02*
X12064577Y-15620638D01*
X12064577Y-15620638D02*
X12074101Y-15639686D01*
X12074101Y-15639686D02*
X12074101Y-15696828D01*
X12074101Y-15696828D02*
X12064577Y-15715876D01*
X12064577Y-15715876D02*
X12055053Y-15725400D01*
X12055053Y-15725400D02*
X12036006Y-15734924D01*
X12036006Y-15734924D02*
X12007434Y-15734924D01*
X12188387Y-15734924D02*
X12169339Y-15725400D01*
X12169339Y-15725400D02*
X12159815Y-15706352D01*
X12159815Y-15706352D02*
X12159815Y-15534924D01*
X12340768Y-15725400D02*
X12321720Y-15734924D01*
X12321720Y-15734924D02*
X12283625Y-15734924D01*
X12283625Y-15734924D02*
X12264577Y-15725400D01*
X12264577Y-15725400D02*
X12255053Y-15706352D01*
X12255053Y-15706352D02*
X12255053Y-15630162D01*
X12255053Y-15630162D02*
X12264577Y-15611114D01*
X12264577Y-15611114D02*
X12283625Y-15601590D01*
X12283625Y-15601590D02*
X12321720Y-15601590D01*
X12321720Y-15601590D02*
X12340768Y-15611114D01*
X12340768Y-15611114D02*
X12350291Y-15630162D01*
X12350291Y-15630162D02*
X12350291Y-15649209D01*
X12350291Y-15649209D02*
X12255053Y-15668257D01*
X12426482Y-15725400D02*
X12445530Y-15734924D01*
X12445530Y-15734924D02*
X12483625Y-15734924D01*
X12483625Y-15734924D02*
X12502672Y-15725400D01*
X12502672Y-15725400D02*
X12512196Y-15706352D01*
X12512196Y-15706352D02*
X12512196Y-15696828D01*
X12512196Y-15696828D02*
X12502672Y-15677781D01*
X12502672Y-15677781D02*
X12483625Y-15668257D01*
X12483625Y-15668257D02*
X12455053Y-15668257D01*
X12455053Y-15668257D02*
X12436006Y-15658733D01*
X12436006Y-15658733D02*
X12426482Y-15639686D01*
X12426482Y-15639686D02*
X12426482Y-15630162D01*
X12426482Y-15630162D02*
X12436006Y-15611114D01*
X12436006Y-15611114D02*
X12455053Y-15601590D01*
X12455053Y-15601590D02*
X12483625Y-15601590D01*
X12483625Y-15601590D02*
X12502672Y-15611114D01*
X12578863Y-15811114D02*
X12588387Y-15801590D01*
X12588387Y-15801590D02*
X12607434Y-15773019D01*
X12607434Y-15773019D02*
X12616958Y-15753971D01*
X12616958Y-15753971D02*
X12626482Y-15725400D01*
X12626482Y-15725400D02*
X12636006Y-15677781D01*
X12636006Y-15677781D02*
X12636006Y-15639686D01*
X12636006Y-15639686D02*
X12626482Y-15592067D01*
X12626482Y-15592067D02*
X12616958Y-15563495D01*
X12616958Y-15563495D02*
X12607434Y-15544448D01*
X12607434Y-15544448D02*
X12588387Y-15515876D01*
X12588387Y-15515876D02*
X12578863Y-15506352D01*
D13*
X7803800Y-15907440D02*
G75*
G03*
X7803800Y-15907440I-15000J0D01*
G01*
D11*
X8102672Y-15798924D02*
X8121720Y-15798924D01*
X8121720Y-15798924D02*
X8140767Y-15808448D01*
X8140767Y-15808448D02*
X8150291Y-15817971D01*
X8150291Y-15817971D02*
X8159815Y-15837019D01*
X8159815Y-15837019D02*
X8169339Y-15875114D01*
X8169339Y-15875114D02*
X8169339Y-15922733D01*
X8169339Y-15922733D02*
X8159815Y-15960828D01*
X8159815Y-15960828D02*
X8150291Y-15979876D01*
X8150291Y-15979876D02*
X8140767Y-15989400D01*
X8140767Y-15989400D02*
X8121720Y-15998924D01*
X8121720Y-15998924D02*
X8102672Y-15998924D01*
X8102672Y-15998924D02*
X8083624Y-15989400D01*
X8083624Y-15989400D02*
X8074101Y-15979876D01*
X8074101Y-15979876D02*
X8064577Y-15960828D01*
X8064577Y-15960828D02*
X8055053Y-15922733D01*
X8055053Y-15922733D02*
X8055053Y-15875114D01*
X8055053Y-15875114D02*
X8064577Y-15837019D01*
X8064577Y-15837019D02*
X8074101Y-15817971D01*
X8074101Y-15817971D02*
X8083624Y-15808448D01*
X8083624Y-15808448D02*
X8102672Y-15798924D01*
X8255053Y-15979876D02*
X8264577Y-15989400D01*
X8264577Y-15989400D02*
X8255053Y-15998924D01*
X8255053Y-15998924D02*
X8245529Y-15989400D01*
X8245529Y-15989400D02*
X8255053Y-15979876D01*
X8255053Y-15979876D02*
X8255053Y-15998924D01*
X8331243Y-15798924D02*
X8455053Y-15798924D01*
X8455053Y-15798924D02*
X8388386Y-15875114D01*
X8388386Y-15875114D02*
X8416958Y-15875114D01*
X8416958Y-15875114D02*
X8436005Y-15884638D01*
X8436005Y-15884638D02*
X8445529Y-15894162D01*
X8445529Y-15894162D02*
X8455053Y-15913209D01*
X8455053Y-15913209D02*
X8455053Y-15960828D01*
X8455053Y-15960828D02*
X8445529Y-15979876D01*
X8445529Y-15979876D02*
X8436005Y-15989400D01*
X8436005Y-15989400D02*
X8416958Y-15998924D01*
X8416958Y-15998924D02*
X8359815Y-15998924D01*
X8359815Y-15998924D02*
X8340767Y-15989400D01*
X8340767Y-15989400D02*
X8331243Y-15979876D01*
X8578863Y-15798924D02*
X8597910Y-15798924D01*
X8597910Y-15798924D02*
X8616958Y-15808448D01*
X8616958Y-15808448D02*
X8626482Y-15817971D01*
X8626482Y-15817971D02*
X8636005Y-15837019D01*
X8636005Y-15837019D02*
X8645529Y-15875114D01*
X8645529Y-15875114D02*
X8645529Y-15922733D01*
X8645529Y-15922733D02*
X8636005Y-15960828D01*
X8636005Y-15960828D02*
X8626482Y-15979876D01*
X8626482Y-15979876D02*
X8616958Y-15989400D01*
X8616958Y-15989400D02*
X8597910Y-15998924D01*
X8597910Y-15998924D02*
X8578863Y-15998924D01*
X8578863Y-15998924D02*
X8559815Y-15989400D01*
X8559815Y-15989400D02*
X8550291Y-15979876D01*
X8550291Y-15979876D02*
X8540767Y-15960828D01*
X8540767Y-15960828D02*
X8531244Y-15922733D01*
X8531244Y-15922733D02*
X8531244Y-15875114D01*
X8531244Y-15875114D02*
X8540767Y-15837019D01*
X8540767Y-15837019D02*
X8550291Y-15817971D01*
X8550291Y-15817971D02*
X8559815Y-15808448D01*
X8559815Y-15808448D02*
X8578863Y-15798924D01*
X8769339Y-15798924D02*
X8788386Y-15798924D01*
X8788386Y-15798924D02*
X8807434Y-15808448D01*
X8807434Y-15808448D02*
X8816958Y-15817971D01*
X8816958Y-15817971D02*
X8826482Y-15837019D01*
X8826482Y-15837019D02*
X8836005Y-15875114D01*
X8836005Y-15875114D02*
X8836005Y-15922733D01*
X8836005Y-15922733D02*
X8826482Y-15960828D01*
X8826482Y-15960828D02*
X8816958Y-15979876D01*
X8816958Y-15979876D02*
X8807434Y-15989400D01*
X8807434Y-15989400D02*
X8788386Y-15998924D01*
X8788386Y-15998924D02*
X8769339Y-15998924D01*
X8769339Y-15998924D02*
X8750291Y-15989400D01*
X8750291Y-15989400D02*
X8740767Y-15979876D01*
X8740767Y-15979876D02*
X8731244Y-15960828D01*
X8731244Y-15960828D02*
X8721720Y-15922733D01*
X8721720Y-15922733D02*
X8721720Y-15875114D01*
X8721720Y-15875114D02*
X8731244Y-15837019D01*
X8731244Y-15837019D02*
X8740767Y-15817971D01*
X8740767Y-15817971D02*
X8750291Y-15808448D01*
X8750291Y-15808448D02*
X8769339Y-15798924D01*
X8921720Y-15998924D02*
X8921720Y-15865590D01*
X8921720Y-15884638D02*
X8931244Y-15875114D01*
X8931244Y-15875114D02*
X8950291Y-15865590D01*
X8950291Y-15865590D02*
X8978863Y-15865590D01*
X8978863Y-15865590D02*
X8997910Y-15875114D01*
X8997910Y-15875114D02*
X9007434Y-15894162D01*
X9007434Y-15894162D02*
X9007434Y-15998924D01*
X9007434Y-15894162D02*
X9016958Y-15875114D01*
X9016958Y-15875114D02*
X9036005Y-15865590D01*
X9036005Y-15865590D02*
X9064577Y-15865590D01*
X9064577Y-15865590D02*
X9083625Y-15875114D01*
X9083625Y-15875114D02*
X9093148Y-15894162D01*
X9093148Y-15894162D02*
X9093148Y-15998924D01*
X9188386Y-15998924D02*
X9188386Y-15865590D01*
X9188386Y-15884638D02*
X9197910Y-15875114D01*
X9197910Y-15875114D02*
X9216958Y-15865590D01*
X9216958Y-15865590D02*
X9245529Y-15865590D01*
X9245529Y-15865590D02*
X9264577Y-15875114D01*
X9264577Y-15875114D02*
X9274101Y-15894162D01*
X9274101Y-15894162D02*
X9274101Y-15998924D01*
X9274101Y-15894162D02*
X9283625Y-15875114D01*
X9283625Y-15875114D02*
X9302672Y-15865590D01*
X9302672Y-15865590D02*
X9331244Y-15865590D01*
X9331244Y-15865590D02*
X9350291Y-15875114D01*
X9350291Y-15875114D02*
X9359815Y-15894162D01*
X9359815Y-15894162D02*
X9359815Y-15998924D01*
X9750291Y-15789400D02*
X9578863Y-16046543D01*
X10007434Y-15798924D02*
X10026482Y-15798924D01*
X10026482Y-15798924D02*
X10045529Y-15808448D01*
X10045529Y-15808448D02*
X10055053Y-15817971D01*
X10055053Y-15817971D02*
X10064577Y-15837019D01*
X10064577Y-15837019D02*
X10074101Y-15875114D01*
X10074101Y-15875114D02*
X10074101Y-15922733D01*
X10074101Y-15922733D02*
X10064577Y-15960828D01*
X10064577Y-15960828D02*
X10055053Y-15979876D01*
X10055053Y-15979876D02*
X10045529Y-15989400D01*
X10045529Y-15989400D02*
X10026482Y-15998924D01*
X10026482Y-15998924D02*
X10007434Y-15998924D01*
X10007434Y-15998924D02*
X9988387Y-15989400D01*
X9988387Y-15989400D02*
X9978863Y-15979876D01*
X9978863Y-15979876D02*
X9969339Y-15960828D01*
X9969339Y-15960828D02*
X9959815Y-15922733D01*
X9959815Y-15922733D02*
X9959815Y-15875114D01*
X9959815Y-15875114D02*
X9969339Y-15837019D01*
X9969339Y-15837019D02*
X9978863Y-15817971D01*
X9978863Y-15817971D02*
X9988387Y-15808448D01*
X9988387Y-15808448D02*
X10007434Y-15798924D01*
X10159815Y-15979876D02*
X10169339Y-15989400D01*
X10169339Y-15989400D02*
X10159815Y-15998924D01*
X10159815Y-15998924D02*
X10150291Y-15989400D01*
X10150291Y-15989400D02*
X10159815Y-15979876D01*
X10159815Y-15979876D02*
X10159815Y-15998924D01*
X10293148Y-15798924D02*
X10312196Y-15798924D01*
X10312196Y-15798924D02*
X10331244Y-15808448D01*
X10331244Y-15808448D02*
X10340768Y-15817971D01*
X10340768Y-15817971D02*
X10350291Y-15837019D01*
X10350291Y-15837019D02*
X10359815Y-15875114D01*
X10359815Y-15875114D02*
X10359815Y-15922733D01*
X10359815Y-15922733D02*
X10350291Y-15960828D01*
X10350291Y-15960828D02*
X10340768Y-15979876D01*
X10340768Y-15979876D02*
X10331244Y-15989400D01*
X10331244Y-15989400D02*
X10312196Y-15998924D01*
X10312196Y-15998924D02*
X10293148Y-15998924D01*
X10293148Y-15998924D02*
X10274101Y-15989400D01*
X10274101Y-15989400D02*
X10264577Y-15979876D01*
X10264577Y-15979876D02*
X10255053Y-15960828D01*
X10255053Y-15960828D02*
X10245529Y-15922733D01*
X10245529Y-15922733D02*
X10245529Y-15875114D01*
X10245529Y-15875114D02*
X10255053Y-15837019D01*
X10255053Y-15837019D02*
X10264577Y-15817971D01*
X10264577Y-15817971D02*
X10274101Y-15808448D01*
X10274101Y-15808448D02*
X10293148Y-15798924D01*
X10550291Y-15998924D02*
X10436006Y-15998924D01*
X10493148Y-15998924D02*
X10493148Y-15798924D01*
X10493148Y-15798924D02*
X10474101Y-15827495D01*
X10474101Y-15827495D02*
X10455053Y-15846543D01*
X10455053Y-15846543D02*
X10436006Y-15856067D01*
X10740768Y-15998924D02*
X10626482Y-15998924D01*
X10683625Y-15998924D02*
X10683625Y-15798924D01*
X10683625Y-15798924D02*
X10664577Y-15827495D01*
X10664577Y-15827495D02*
X10645529Y-15846543D01*
X10645529Y-15846543D02*
X10626482Y-15856067D01*
X10855053Y-15884638D02*
X10836006Y-15875114D01*
X10836006Y-15875114D02*
X10826482Y-15865590D01*
X10826482Y-15865590D02*
X10816958Y-15846543D01*
X10816958Y-15846543D02*
X10816958Y-15837019D01*
X10816958Y-15837019D02*
X10826482Y-15817971D01*
X10826482Y-15817971D02*
X10836006Y-15808448D01*
X10836006Y-15808448D02*
X10855053Y-15798924D01*
X10855053Y-15798924D02*
X10893149Y-15798924D01*
X10893149Y-15798924D02*
X10912196Y-15808448D01*
X10912196Y-15808448D02*
X10921720Y-15817971D01*
X10921720Y-15817971D02*
X10931244Y-15837019D01*
X10931244Y-15837019D02*
X10931244Y-15846543D01*
X10931244Y-15846543D02*
X10921720Y-15865590D01*
X10921720Y-15865590D02*
X10912196Y-15875114D01*
X10912196Y-15875114D02*
X10893149Y-15884638D01*
X10893149Y-15884638D02*
X10855053Y-15884638D01*
X10855053Y-15884638D02*
X10836006Y-15894162D01*
X10836006Y-15894162D02*
X10826482Y-15903686D01*
X10826482Y-15903686D02*
X10816958Y-15922733D01*
X10816958Y-15922733D02*
X10816958Y-15960828D01*
X10816958Y-15960828D02*
X10826482Y-15979876D01*
X10826482Y-15979876D02*
X10836006Y-15989400D01*
X10836006Y-15989400D02*
X10855053Y-15998924D01*
X10855053Y-15998924D02*
X10893149Y-15998924D01*
X10893149Y-15998924D02*
X10912196Y-15989400D01*
X10912196Y-15989400D02*
X10921720Y-15979876D01*
X10921720Y-15979876D02*
X10931244Y-15960828D01*
X10931244Y-15960828D02*
X10931244Y-15922733D01*
X10931244Y-15922733D02*
X10921720Y-15903686D01*
X10921720Y-15903686D02*
X10912196Y-15894162D01*
X10912196Y-15894162D02*
X10893149Y-15884638D01*
X11007434Y-15798924D02*
X11007434Y-15837019D01*
X11083625Y-15798924D02*
X11083625Y-15837019D01*
X11378863Y-16075114D02*
X11369339Y-16065590D01*
X11369339Y-16065590D02*
X11350291Y-16037019D01*
X11350291Y-16037019D02*
X11340768Y-16017971D01*
X11340768Y-16017971D02*
X11331244Y-15989400D01*
X11331244Y-15989400D02*
X11321720Y-15941781D01*
X11321720Y-15941781D02*
X11321720Y-15903686D01*
X11321720Y-15903686D02*
X11331244Y-15856067D01*
X11331244Y-15856067D02*
X11340768Y-15827495D01*
X11340768Y-15827495D02*
X11350291Y-15808448D01*
X11350291Y-15808448D02*
X11369339Y-15779876D01*
X11369339Y-15779876D02*
X11378863Y-15770352D01*
X11445529Y-15817971D02*
X11455053Y-15808448D01*
X11455053Y-15808448D02*
X11474101Y-15798924D01*
X11474101Y-15798924D02*
X11521720Y-15798924D01*
X11521720Y-15798924D02*
X11540768Y-15808448D01*
X11540768Y-15808448D02*
X11550291Y-15817971D01*
X11550291Y-15817971D02*
X11559815Y-15837019D01*
X11559815Y-15837019D02*
X11559815Y-15856067D01*
X11559815Y-15856067D02*
X11550291Y-15884638D01*
X11550291Y-15884638D02*
X11436006Y-15998924D01*
X11436006Y-15998924D02*
X11559815Y-15998924D01*
X11636006Y-15817971D02*
X11645529Y-15808448D01*
X11645529Y-15808448D02*
X11664577Y-15798924D01*
X11664577Y-15798924D02*
X11712196Y-15798924D01*
X11712196Y-15798924D02*
X11731244Y-15808448D01*
X11731244Y-15808448D02*
X11740768Y-15817971D01*
X11740768Y-15817971D02*
X11750291Y-15837019D01*
X11750291Y-15837019D02*
X11750291Y-15856067D01*
X11750291Y-15856067D02*
X11740768Y-15884638D01*
X11740768Y-15884638D02*
X11626482Y-15998924D01*
X11626482Y-15998924D02*
X11750291Y-15998924D01*
X11921720Y-15798924D02*
X11883625Y-15798924D01*
X11883625Y-15798924D02*
X11864577Y-15808448D01*
X11864577Y-15808448D02*
X11855053Y-15817971D01*
X11855053Y-15817971D02*
X11836006Y-15846543D01*
X11836006Y-15846543D02*
X11826482Y-15884638D01*
X11826482Y-15884638D02*
X11826482Y-15960828D01*
X11826482Y-15960828D02*
X11836006Y-15979876D01*
X11836006Y-15979876D02*
X11845529Y-15989400D01*
X11845529Y-15989400D02*
X11864577Y-15998924D01*
X11864577Y-15998924D02*
X11902672Y-15998924D01*
X11902672Y-15998924D02*
X11921720Y-15989400D01*
X11921720Y-15989400D02*
X11931244Y-15979876D01*
X11931244Y-15979876D02*
X11940768Y-15960828D01*
X11940768Y-15960828D02*
X11940768Y-15913209D01*
X11940768Y-15913209D02*
X11931244Y-15894162D01*
X11931244Y-15894162D02*
X11921720Y-15884638D01*
X11921720Y-15884638D02*
X11902672Y-15875114D01*
X11902672Y-15875114D02*
X11864577Y-15875114D01*
X11864577Y-15875114D02*
X11845529Y-15884638D01*
X11845529Y-15884638D02*
X11836006Y-15894162D01*
X11836006Y-15894162D02*
X11826482Y-15913209D01*
X12178863Y-15998924D02*
X12178863Y-15798924D01*
X12264577Y-15998924D02*
X12264577Y-15894162D01*
X12264577Y-15894162D02*
X12255053Y-15875114D01*
X12255053Y-15875114D02*
X12236006Y-15865590D01*
X12236006Y-15865590D02*
X12207434Y-15865590D01*
X12207434Y-15865590D02*
X12188387Y-15875114D01*
X12188387Y-15875114D02*
X12178863Y-15884638D01*
X12388387Y-15998924D02*
X12369339Y-15989400D01*
X12369339Y-15989400D02*
X12359815Y-15979876D01*
X12359815Y-15979876D02*
X12350291Y-15960828D01*
X12350291Y-15960828D02*
X12350291Y-15903686D01*
X12350291Y-15903686D02*
X12359815Y-15884638D01*
X12359815Y-15884638D02*
X12369339Y-15875114D01*
X12369339Y-15875114D02*
X12388387Y-15865590D01*
X12388387Y-15865590D02*
X12416958Y-15865590D01*
X12416958Y-15865590D02*
X12436006Y-15875114D01*
X12436006Y-15875114D02*
X12445530Y-15884638D01*
X12445530Y-15884638D02*
X12455053Y-15903686D01*
X12455053Y-15903686D02*
X12455053Y-15960828D01*
X12455053Y-15960828D02*
X12445530Y-15979876D01*
X12445530Y-15979876D02*
X12436006Y-15989400D01*
X12436006Y-15989400D02*
X12416958Y-15998924D01*
X12416958Y-15998924D02*
X12388387Y-15998924D01*
X12569339Y-15998924D02*
X12550291Y-15989400D01*
X12550291Y-15989400D02*
X12540768Y-15970352D01*
X12540768Y-15970352D02*
X12540768Y-15798924D01*
X12721720Y-15989400D02*
X12702672Y-15998924D01*
X12702672Y-15998924D02*
X12664577Y-15998924D01*
X12664577Y-15998924D02*
X12645530Y-15989400D01*
X12645530Y-15989400D02*
X12636006Y-15970352D01*
X12636006Y-15970352D02*
X12636006Y-15894162D01*
X12636006Y-15894162D02*
X12645530Y-15875114D01*
X12645530Y-15875114D02*
X12664577Y-15865590D01*
X12664577Y-15865590D02*
X12702672Y-15865590D01*
X12702672Y-15865590D02*
X12721720Y-15875114D01*
X12721720Y-15875114D02*
X12731244Y-15894162D01*
X12731244Y-15894162D02*
X12731244Y-15913209D01*
X12731244Y-15913209D02*
X12636006Y-15932257D01*
X12807434Y-15989400D02*
X12826482Y-15998924D01*
X12826482Y-15998924D02*
X12864577Y-15998924D01*
X12864577Y-15998924D02*
X12883625Y-15989400D01*
X12883625Y-15989400D02*
X12893149Y-15970352D01*
X12893149Y-15970352D02*
X12893149Y-15960828D01*
X12893149Y-15960828D02*
X12883625Y-15941781D01*
X12883625Y-15941781D02*
X12864577Y-15932257D01*
X12864577Y-15932257D02*
X12836006Y-15932257D01*
X12836006Y-15932257D02*
X12816958Y-15922733D01*
X12816958Y-15922733D02*
X12807434Y-15903686D01*
X12807434Y-15903686D02*
X12807434Y-15894162D01*
X12807434Y-15894162D02*
X12816958Y-15875114D01*
X12816958Y-15875114D02*
X12836006Y-15865590D01*
X12836006Y-15865590D02*
X12864577Y-15865590D01*
X12864577Y-15865590D02*
X12883625Y-15875114D01*
X12959815Y-16075114D02*
X12969339Y-16065590D01*
X12969339Y-16065590D02*
X12988387Y-16037019D01*
X12988387Y-16037019D02*
X12997911Y-16017971D01*
X12997911Y-16017971D02*
X13007434Y-15989400D01*
X13007434Y-15989400D02*
X13016958Y-15941781D01*
X13016958Y-15941781D02*
X13016958Y-15903686D01*
X13016958Y-15903686D02*
X13007434Y-15856067D01*
X13007434Y-15856067D02*
X12997911Y-15827495D01*
X12997911Y-15827495D02*
X12988387Y-15808448D01*
X12988387Y-15808448D02*
X12969339Y-15779876D01*
X12969339Y-15779876D02*
X12959815Y-15770352D01*
D14*
X7778800Y-16146440D02*
X7778800Y-16196440D01*
X7753800Y-16171440D02*
X7803800Y-16171440D01*
D11*
X8102672Y-16062924D02*
X8121720Y-16062924D01*
X8121720Y-16062924D02*
X8140767Y-16072448D01*
X8140767Y-16072448D02*
X8150291Y-16081971D01*
X8150291Y-16081971D02*
X8159815Y-16101019D01*
X8159815Y-16101019D02*
X8169339Y-16139114D01*
X8169339Y-16139114D02*
X8169339Y-16186733D01*
X8169339Y-16186733D02*
X8159815Y-16224828D01*
X8159815Y-16224828D02*
X8150291Y-16243876D01*
X8150291Y-16243876D02*
X8140767Y-16253400D01*
X8140767Y-16253400D02*
X8121720Y-16262924D01*
X8121720Y-16262924D02*
X8102672Y-16262924D01*
X8102672Y-16262924D02*
X8083624Y-16253400D01*
X8083624Y-16253400D02*
X8074101Y-16243876D01*
X8074101Y-16243876D02*
X8064577Y-16224828D01*
X8064577Y-16224828D02*
X8055053Y-16186733D01*
X8055053Y-16186733D02*
X8055053Y-16139114D01*
X8055053Y-16139114D02*
X8064577Y-16101019D01*
X8064577Y-16101019D02*
X8074101Y-16081971D01*
X8074101Y-16081971D02*
X8083624Y-16072448D01*
X8083624Y-16072448D02*
X8102672Y-16062924D01*
X8255053Y-16243876D02*
X8264577Y-16253400D01*
X8264577Y-16253400D02*
X8255053Y-16262924D01*
X8255053Y-16262924D02*
X8245529Y-16253400D01*
X8245529Y-16253400D02*
X8255053Y-16243876D01*
X8255053Y-16243876D02*
X8255053Y-16262924D01*
X8445529Y-16062924D02*
X8350291Y-16062924D01*
X8350291Y-16062924D02*
X8340767Y-16158162D01*
X8340767Y-16158162D02*
X8350291Y-16148638D01*
X8350291Y-16148638D02*
X8369339Y-16139114D01*
X8369339Y-16139114D02*
X8416958Y-16139114D01*
X8416958Y-16139114D02*
X8436005Y-16148638D01*
X8436005Y-16148638D02*
X8445529Y-16158162D01*
X8445529Y-16158162D02*
X8455053Y-16177209D01*
X8455053Y-16177209D02*
X8455053Y-16224828D01*
X8455053Y-16224828D02*
X8445529Y-16243876D01*
X8445529Y-16243876D02*
X8436005Y-16253400D01*
X8436005Y-16253400D02*
X8416958Y-16262924D01*
X8416958Y-16262924D02*
X8369339Y-16262924D01*
X8369339Y-16262924D02*
X8350291Y-16253400D01*
X8350291Y-16253400D02*
X8340767Y-16243876D01*
X8578863Y-16062924D02*
X8597910Y-16062924D01*
X8597910Y-16062924D02*
X8616958Y-16072448D01*
X8616958Y-16072448D02*
X8626482Y-16081971D01*
X8626482Y-16081971D02*
X8636005Y-16101019D01*
X8636005Y-16101019D02*
X8645529Y-16139114D01*
X8645529Y-16139114D02*
X8645529Y-16186733D01*
X8645529Y-16186733D02*
X8636005Y-16224828D01*
X8636005Y-16224828D02*
X8626482Y-16243876D01*
X8626482Y-16243876D02*
X8616958Y-16253400D01*
X8616958Y-16253400D02*
X8597910Y-16262924D01*
X8597910Y-16262924D02*
X8578863Y-16262924D01*
X8578863Y-16262924D02*
X8559815Y-16253400D01*
X8559815Y-16253400D02*
X8550291Y-16243876D01*
X8550291Y-16243876D02*
X8540767Y-16224828D01*
X8540767Y-16224828D02*
X8531244Y-16186733D01*
X8531244Y-16186733D02*
X8531244Y-16139114D01*
X8531244Y-16139114D02*
X8540767Y-16101019D01*
X8540767Y-16101019D02*
X8550291Y-16081971D01*
X8550291Y-16081971D02*
X8559815Y-16072448D01*
X8559815Y-16072448D02*
X8578863Y-16062924D01*
X8769339Y-16062924D02*
X8788386Y-16062924D01*
X8788386Y-16062924D02*
X8807434Y-16072448D01*
X8807434Y-16072448D02*
X8816958Y-16081971D01*
X8816958Y-16081971D02*
X8826482Y-16101019D01*
X8826482Y-16101019D02*
X8836005Y-16139114D01*
X8836005Y-16139114D02*
X8836005Y-16186733D01*
X8836005Y-16186733D02*
X8826482Y-16224828D01*
X8826482Y-16224828D02*
X8816958Y-16243876D01*
X8816958Y-16243876D02*
X8807434Y-16253400D01*
X8807434Y-16253400D02*
X8788386Y-16262924D01*
X8788386Y-16262924D02*
X8769339Y-16262924D01*
X8769339Y-16262924D02*
X8750291Y-16253400D01*
X8750291Y-16253400D02*
X8740767Y-16243876D01*
X8740767Y-16243876D02*
X8731244Y-16224828D01*
X8731244Y-16224828D02*
X8721720Y-16186733D01*
X8721720Y-16186733D02*
X8721720Y-16139114D01*
X8721720Y-16139114D02*
X8731244Y-16101019D01*
X8731244Y-16101019D02*
X8740767Y-16081971D01*
X8740767Y-16081971D02*
X8750291Y-16072448D01*
X8750291Y-16072448D02*
X8769339Y-16062924D01*
X8921720Y-16262924D02*
X8921720Y-16129590D01*
X8921720Y-16148638D02*
X8931244Y-16139114D01*
X8931244Y-16139114D02*
X8950291Y-16129590D01*
X8950291Y-16129590D02*
X8978863Y-16129590D01*
X8978863Y-16129590D02*
X8997910Y-16139114D01*
X8997910Y-16139114D02*
X9007434Y-16158162D01*
X9007434Y-16158162D02*
X9007434Y-16262924D01*
X9007434Y-16158162D02*
X9016958Y-16139114D01*
X9016958Y-16139114D02*
X9036005Y-16129590D01*
X9036005Y-16129590D02*
X9064577Y-16129590D01*
X9064577Y-16129590D02*
X9083625Y-16139114D01*
X9083625Y-16139114D02*
X9093148Y-16158162D01*
X9093148Y-16158162D02*
X9093148Y-16262924D01*
X9188386Y-16262924D02*
X9188386Y-16129590D01*
X9188386Y-16148638D02*
X9197910Y-16139114D01*
X9197910Y-16139114D02*
X9216958Y-16129590D01*
X9216958Y-16129590D02*
X9245529Y-16129590D01*
X9245529Y-16129590D02*
X9264577Y-16139114D01*
X9264577Y-16139114D02*
X9274101Y-16158162D01*
X9274101Y-16158162D02*
X9274101Y-16262924D01*
X9274101Y-16158162D02*
X9283625Y-16139114D01*
X9283625Y-16139114D02*
X9302672Y-16129590D01*
X9302672Y-16129590D02*
X9331244Y-16129590D01*
X9331244Y-16129590D02*
X9350291Y-16139114D01*
X9350291Y-16139114D02*
X9359815Y-16158162D01*
X9359815Y-16158162D02*
X9359815Y-16262924D01*
X9750291Y-16053400D02*
X9578863Y-16310543D01*
X10007434Y-16062924D02*
X10026482Y-16062924D01*
X10026482Y-16062924D02*
X10045529Y-16072448D01*
X10045529Y-16072448D02*
X10055053Y-16081971D01*
X10055053Y-16081971D02*
X10064577Y-16101019D01*
X10064577Y-16101019D02*
X10074101Y-16139114D01*
X10074101Y-16139114D02*
X10074101Y-16186733D01*
X10074101Y-16186733D02*
X10064577Y-16224828D01*
X10064577Y-16224828D02*
X10055053Y-16243876D01*
X10055053Y-16243876D02*
X10045529Y-16253400D01*
X10045529Y-16253400D02*
X10026482Y-16262924D01*
X10026482Y-16262924D02*
X10007434Y-16262924D01*
X10007434Y-16262924D02*
X9988387Y-16253400D01*
X9988387Y-16253400D02*
X9978863Y-16243876D01*
X9978863Y-16243876D02*
X9969339Y-16224828D01*
X9969339Y-16224828D02*
X9959815Y-16186733D01*
X9959815Y-16186733D02*
X9959815Y-16139114D01*
X9959815Y-16139114D02*
X9969339Y-16101019D01*
X9969339Y-16101019D02*
X9978863Y-16081971D01*
X9978863Y-16081971D02*
X9988387Y-16072448D01*
X9988387Y-16072448D02*
X10007434Y-16062924D01*
X10159815Y-16243876D02*
X10169339Y-16253400D01*
X10169339Y-16253400D02*
X10159815Y-16262924D01*
X10159815Y-16262924D02*
X10150291Y-16253400D01*
X10150291Y-16253400D02*
X10159815Y-16243876D01*
X10159815Y-16243876D02*
X10159815Y-16262924D01*
X10293148Y-16062924D02*
X10312196Y-16062924D01*
X10312196Y-16062924D02*
X10331244Y-16072448D01*
X10331244Y-16072448D02*
X10340768Y-16081971D01*
X10340768Y-16081971D02*
X10350291Y-16101019D01*
X10350291Y-16101019D02*
X10359815Y-16139114D01*
X10359815Y-16139114D02*
X10359815Y-16186733D01*
X10359815Y-16186733D02*
X10350291Y-16224828D01*
X10350291Y-16224828D02*
X10340768Y-16243876D01*
X10340768Y-16243876D02*
X10331244Y-16253400D01*
X10331244Y-16253400D02*
X10312196Y-16262924D01*
X10312196Y-16262924D02*
X10293148Y-16262924D01*
X10293148Y-16262924D02*
X10274101Y-16253400D01*
X10274101Y-16253400D02*
X10264577Y-16243876D01*
X10264577Y-16243876D02*
X10255053Y-16224828D01*
X10255053Y-16224828D02*
X10245529Y-16186733D01*
X10245529Y-16186733D02*
X10245529Y-16139114D01*
X10245529Y-16139114D02*
X10255053Y-16101019D01*
X10255053Y-16101019D02*
X10264577Y-16081971D01*
X10264577Y-16081971D02*
X10274101Y-16072448D01*
X10274101Y-16072448D02*
X10293148Y-16062924D01*
X10550291Y-16262924D02*
X10436006Y-16262924D01*
X10493148Y-16262924D02*
X10493148Y-16062924D01*
X10493148Y-16062924D02*
X10474101Y-16091495D01*
X10474101Y-16091495D02*
X10455053Y-16110543D01*
X10455053Y-16110543D02*
X10436006Y-16120067D01*
X10645529Y-16262924D02*
X10683625Y-16262924D01*
X10683625Y-16262924D02*
X10702672Y-16253400D01*
X10702672Y-16253400D02*
X10712196Y-16243876D01*
X10712196Y-16243876D02*
X10731244Y-16215305D01*
X10731244Y-16215305D02*
X10740768Y-16177209D01*
X10740768Y-16177209D02*
X10740768Y-16101019D01*
X10740768Y-16101019D02*
X10731244Y-16081971D01*
X10731244Y-16081971D02*
X10721720Y-16072448D01*
X10721720Y-16072448D02*
X10702672Y-16062924D01*
X10702672Y-16062924D02*
X10664577Y-16062924D01*
X10664577Y-16062924D02*
X10645529Y-16072448D01*
X10645529Y-16072448D02*
X10636006Y-16081971D01*
X10636006Y-16081971D02*
X10626482Y-16101019D01*
X10626482Y-16101019D02*
X10626482Y-16148638D01*
X10626482Y-16148638D02*
X10636006Y-16167686D01*
X10636006Y-16167686D02*
X10645529Y-16177209D01*
X10645529Y-16177209D02*
X10664577Y-16186733D01*
X10664577Y-16186733D02*
X10702672Y-16186733D01*
X10702672Y-16186733D02*
X10721720Y-16177209D01*
X10721720Y-16177209D02*
X10731244Y-16167686D01*
X10731244Y-16167686D02*
X10740768Y-16148638D01*
X10807434Y-16062924D02*
X10940768Y-16062924D01*
X10940768Y-16062924D02*
X10855053Y-16262924D01*
X11007434Y-16062924D02*
X11007434Y-16101019D01*
X11083625Y-16062924D02*
X11083625Y-16101019D01*
X11378863Y-16339114D02*
X11369339Y-16329590D01*
X11369339Y-16329590D02*
X11350291Y-16301019D01*
X11350291Y-16301019D02*
X11340768Y-16281971D01*
X11340768Y-16281971D02*
X11331244Y-16253400D01*
X11331244Y-16253400D02*
X11321720Y-16205781D01*
X11321720Y-16205781D02*
X11321720Y-16167686D01*
X11321720Y-16167686D02*
X11331244Y-16120067D01*
X11331244Y-16120067D02*
X11340768Y-16091495D01*
X11340768Y-16091495D02*
X11350291Y-16072448D01*
X11350291Y-16072448D02*
X11369339Y-16043876D01*
X11369339Y-16043876D02*
X11378863Y-16034352D01*
X11436006Y-16062924D02*
X11559815Y-16062924D01*
X11559815Y-16062924D02*
X11493148Y-16139114D01*
X11493148Y-16139114D02*
X11521720Y-16139114D01*
X11521720Y-16139114D02*
X11540768Y-16148638D01*
X11540768Y-16148638D02*
X11550291Y-16158162D01*
X11550291Y-16158162D02*
X11559815Y-16177209D01*
X11559815Y-16177209D02*
X11559815Y-16224828D01*
X11559815Y-16224828D02*
X11550291Y-16243876D01*
X11550291Y-16243876D02*
X11540768Y-16253400D01*
X11540768Y-16253400D02*
X11521720Y-16262924D01*
X11521720Y-16262924D02*
X11464577Y-16262924D01*
X11464577Y-16262924D02*
X11445529Y-16253400D01*
X11445529Y-16253400D02*
X11436006Y-16243876D01*
X11797910Y-16262924D02*
X11797910Y-16062924D01*
X11883625Y-16262924D02*
X11883625Y-16158162D01*
X11883625Y-16158162D02*
X11874101Y-16139114D01*
X11874101Y-16139114D02*
X11855053Y-16129590D01*
X11855053Y-16129590D02*
X11826482Y-16129590D01*
X11826482Y-16129590D02*
X11807434Y-16139114D01*
X11807434Y-16139114D02*
X11797910Y-16148638D01*
X12007434Y-16262924D02*
X11988387Y-16253400D01*
X11988387Y-16253400D02*
X11978863Y-16243876D01*
X11978863Y-16243876D02*
X11969339Y-16224828D01*
X11969339Y-16224828D02*
X11969339Y-16167686D01*
X11969339Y-16167686D02*
X11978863Y-16148638D01*
X11978863Y-16148638D02*
X11988387Y-16139114D01*
X11988387Y-16139114D02*
X12007434Y-16129590D01*
X12007434Y-16129590D02*
X12036006Y-16129590D01*
X12036006Y-16129590D02*
X12055053Y-16139114D01*
X12055053Y-16139114D02*
X12064577Y-16148638D01*
X12064577Y-16148638D02*
X12074101Y-16167686D01*
X12074101Y-16167686D02*
X12074101Y-16224828D01*
X12074101Y-16224828D02*
X12064577Y-16243876D01*
X12064577Y-16243876D02*
X12055053Y-16253400D01*
X12055053Y-16253400D02*
X12036006Y-16262924D01*
X12036006Y-16262924D02*
X12007434Y-16262924D01*
X12188387Y-16262924D02*
X12169339Y-16253400D01*
X12169339Y-16253400D02*
X12159815Y-16234352D01*
X12159815Y-16234352D02*
X12159815Y-16062924D01*
X12340768Y-16253400D02*
X12321720Y-16262924D01*
X12321720Y-16262924D02*
X12283625Y-16262924D01*
X12283625Y-16262924D02*
X12264577Y-16253400D01*
X12264577Y-16253400D02*
X12255053Y-16234352D01*
X12255053Y-16234352D02*
X12255053Y-16158162D01*
X12255053Y-16158162D02*
X12264577Y-16139114D01*
X12264577Y-16139114D02*
X12283625Y-16129590D01*
X12283625Y-16129590D02*
X12321720Y-16129590D01*
X12321720Y-16129590D02*
X12340768Y-16139114D01*
X12340768Y-16139114D02*
X12350291Y-16158162D01*
X12350291Y-16158162D02*
X12350291Y-16177209D01*
X12350291Y-16177209D02*
X12255053Y-16196257D01*
X12426482Y-16253400D02*
X12445530Y-16262924D01*
X12445530Y-16262924D02*
X12483625Y-16262924D01*
X12483625Y-16262924D02*
X12502672Y-16253400D01*
X12502672Y-16253400D02*
X12512196Y-16234352D01*
X12512196Y-16234352D02*
X12512196Y-16224828D01*
X12512196Y-16224828D02*
X12502672Y-16205781D01*
X12502672Y-16205781D02*
X12483625Y-16196257D01*
X12483625Y-16196257D02*
X12455053Y-16196257D01*
X12455053Y-16196257D02*
X12436006Y-16186733D01*
X12436006Y-16186733D02*
X12426482Y-16167686D01*
X12426482Y-16167686D02*
X12426482Y-16158162D01*
X12426482Y-16158162D02*
X12436006Y-16139114D01*
X12436006Y-16139114D02*
X12455053Y-16129590D01*
X12455053Y-16129590D02*
X12483625Y-16129590D01*
X12483625Y-16129590D02*
X12502672Y-16139114D01*
X12578863Y-16339114D02*
X12588387Y-16329590D01*
X12588387Y-16329590D02*
X12607434Y-16301019D01*
X12607434Y-16301019D02*
X12616958Y-16281971D01*
X12616958Y-16281971D02*
X12626482Y-16253400D01*
X12626482Y-16253400D02*
X12636006Y-16205781D01*
X12636006Y-16205781D02*
X12636006Y-16167686D01*
X12636006Y-16167686D02*
X12626482Y-16120067D01*
X12626482Y-16120067D02*
X12616958Y-16091495D01*
X12616958Y-16091495D02*
X12607434Y-16072448D01*
X12607434Y-16072448D02*
X12588387Y-16043876D01*
X12588387Y-16043876D02*
X12578863Y-16034352D01*
D10*
X7789156Y-16470796D02*
X7789156Y-16400084D01*
X7718444Y-16400084D01*
X7718444Y-16470796D01*
X7789156Y-16470796D01*
D11*
X8169339Y-16526924D02*
X8055053Y-16526924D01*
X8112196Y-16526924D02*
X8112196Y-16326924D01*
X8112196Y-16326924D02*
X8093148Y-16355495D01*
X8093148Y-16355495D02*
X8074101Y-16374543D01*
X8074101Y-16374543D02*
X8055053Y-16384067D01*
X8255053Y-16507876D02*
X8264577Y-16517400D01*
X8264577Y-16517400D02*
X8255053Y-16526924D01*
X8255053Y-16526924D02*
X8245529Y-16517400D01*
X8245529Y-16517400D02*
X8255053Y-16507876D01*
X8255053Y-16507876D02*
X8255053Y-16526924D01*
X8388386Y-16326924D02*
X8407434Y-16326924D01*
X8407434Y-16326924D02*
X8426482Y-16336448D01*
X8426482Y-16336448D02*
X8436005Y-16345971D01*
X8436005Y-16345971D02*
X8445529Y-16365019D01*
X8445529Y-16365019D02*
X8455053Y-16403114D01*
X8455053Y-16403114D02*
X8455053Y-16450733D01*
X8455053Y-16450733D02*
X8445529Y-16488828D01*
X8445529Y-16488828D02*
X8436005Y-16507876D01*
X8436005Y-16507876D02*
X8426482Y-16517400D01*
X8426482Y-16517400D02*
X8407434Y-16526924D01*
X8407434Y-16526924D02*
X8388386Y-16526924D01*
X8388386Y-16526924D02*
X8369339Y-16517400D01*
X8369339Y-16517400D02*
X8359815Y-16507876D01*
X8359815Y-16507876D02*
X8350291Y-16488828D01*
X8350291Y-16488828D02*
X8340767Y-16450733D01*
X8340767Y-16450733D02*
X8340767Y-16403114D01*
X8340767Y-16403114D02*
X8350291Y-16365019D01*
X8350291Y-16365019D02*
X8359815Y-16345971D01*
X8359815Y-16345971D02*
X8369339Y-16336448D01*
X8369339Y-16336448D02*
X8388386Y-16326924D01*
X8578863Y-16326924D02*
X8597910Y-16326924D01*
X8597910Y-16326924D02*
X8616958Y-16336448D01*
X8616958Y-16336448D02*
X8626482Y-16345971D01*
X8626482Y-16345971D02*
X8636005Y-16365019D01*
X8636005Y-16365019D02*
X8645529Y-16403114D01*
X8645529Y-16403114D02*
X8645529Y-16450733D01*
X8645529Y-16450733D02*
X8636005Y-16488828D01*
X8636005Y-16488828D02*
X8626482Y-16507876D01*
X8626482Y-16507876D02*
X8616958Y-16517400D01*
X8616958Y-16517400D02*
X8597910Y-16526924D01*
X8597910Y-16526924D02*
X8578863Y-16526924D01*
X8578863Y-16526924D02*
X8559815Y-16517400D01*
X8559815Y-16517400D02*
X8550291Y-16507876D01*
X8550291Y-16507876D02*
X8540767Y-16488828D01*
X8540767Y-16488828D02*
X8531244Y-16450733D01*
X8531244Y-16450733D02*
X8531244Y-16403114D01*
X8531244Y-16403114D02*
X8540767Y-16365019D01*
X8540767Y-16365019D02*
X8550291Y-16345971D01*
X8550291Y-16345971D02*
X8559815Y-16336448D01*
X8559815Y-16336448D02*
X8578863Y-16326924D01*
X8769339Y-16326924D02*
X8788386Y-16326924D01*
X8788386Y-16326924D02*
X8807434Y-16336448D01*
X8807434Y-16336448D02*
X8816958Y-16345971D01*
X8816958Y-16345971D02*
X8826482Y-16365019D01*
X8826482Y-16365019D02*
X8836005Y-16403114D01*
X8836005Y-16403114D02*
X8836005Y-16450733D01*
X8836005Y-16450733D02*
X8826482Y-16488828D01*
X8826482Y-16488828D02*
X8816958Y-16507876D01*
X8816958Y-16507876D02*
X8807434Y-16517400D01*
X8807434Y-16517400D02*
X8788386Y-16526924D01*
X8788386Y-16526924D02*
X8769339Y-16526924D01*
X8769339Y-16526924D02*
X8750291Y-16517400D01*
X8750291Y-16517400D02*
X8740767Y-16507876D01*
X8740767Y-16507876D02*
X8731244Y-16488828D01*
X8731244Y-16488828D02*
X8721720Y-16450733D01*
X8721720Y-16450733D02*
X8721720Y-16403114D01*
X8721720Y-16403114D02*
X8731244Y-16365019D01*
X8731244Y-16365019D02*
X8740767Y-16345971D01*
X8740767Y-16345971D02*
X8750291Y-16336448D01*
X8750291Y-16336448D02*
X8769339Y-16326924D01*
X8921720Y-16526924D02*
X8921720Y-16393590D01*
X8921720Y-16412638D02*
X8931244Y-16403114D01*
X8931244Y-16403114D02*
X8950291Y-16393590D01*
X8950291Y-16393590D02*
X8978863Y-16393590D01*
X8978863Y-16393590D02*
X8997910Y-16403114D01*
X8997910Y-16403114D02*
X9007434Y-16422162D01*
X9007434Y-16422162D02*
X9007434Y-16526924D01*
X9007434Y-16422162D02*
X9016958Y-16403114D01*
X9016958Y-16403114D02*
X9036005Y-16393590D01*
X9036005Y-16393590D02*
X9064577Y-16393590D01*
X9064577Y-16393590D02*
X9083625Y-16403114D01*
X9083625Y-16403114D02*
X9093148Y-16422162D01*
X9093148Y-16422162D02*
X9093148Y-16526924D01*
X9188386Y-16526924D02*
X9188386Y-16393590D01*
X9188386Y-16412638D02*
X9197910Y-16403114D01*
X9197910Y-16403114D02*
X9216958Y-16393590D01*
X9216958Y-16393590D02*
X9245529Y-16393590D01*
X9245529Y-16393590D02*
X9264577Y-16403114D01*
X9264577Y-16403114D02*
X9274101Y-16422162D01*
X9274101Y-16422162D02*
X9274101Y-16526924D01*
X9274101Y-16422162D02*
X9283625Y-16403114D01*
X9283625Y-16403114D02*
X9302672Y-16393590D01*
X9302672Y-16393590D02*
X9331244Y-16393590D01*
X9331244Y-16393590D02*
X9350291Y-16403114D01*
X9350291Y-16403114D02*
X9359815Y-16422162D01*
X9359815Y-16422162D02*
X9359815Y-16526924D01*
X9750291Y-16317400D02*
X9578863Y-16574543D01*
X10007434Y-16326924D02*
X10026482Y-16326924D01*
X10026482Y-16326924D02*
X10045529Y-16336448D01*
X10045529Y-16336448D02*
X10055053Y-16345971D01*
X10055053Y-16345971D02*
X10064577Y-16365019D01*
X10064577Y-16365019D02*
X10074101Y-16403114D01*
X10074101Y-16403114D02*
X10074101Y-16450733D01*
X10074101Y-16450733D02*
X10064577Y-16488828D01*
X10064577Y-16488828D02*
X10055053Y-16507876D01*
X10055053Y-16507876D02*
X10045529Y-16517400D01*
X10045529Y-16517400D02*
X10026482Y-16526924D01*
X10026482Y-16526924D02*
X10007434Y-16526924D01*
X10007434Y-16526924D02*
X9988387Y-16517400D01*
X9988387Y-16517400D02*
X9978863Y-16507876D01*
X9978863Y-16507876D02*
X9969339Y-16488828D01*
X9969339Y-16488828D02*
X9959815Y-16450733D01*
X9959815Y-16450733D02*
X9959815Y-16403114D01*
X9959815Y-16403114D02*
X9969339Y-16365019D01*
X9969339Y-16365019D02*
X9978863Y-16345971D01*
X9978863Y-16345971D02*
X9988387Y-16336448D01*
X9988387Y-16336448D02*
X10007434Y-16326924D01*
X10159815Y-16507876D02*
X10169339Y-16517400D01*
X10169339Y-16517400D02*
X10159815Y-16526924D01*
X10159815Y-16526924D02*
X10150291Y-16517400D01*
X10150291Y-16517400D02*
X10159815Y-16507876D01*
X10159815Y-16507876D02*
X10159815Y-16526924D01*
X10293148Y-16326924D02*
X10312196Y-16326924D01*
X10312196Y-16326924D02*
X10331244Y-16336448D01*
X10331244Y-16336448D02*
X10340768Y-16345971D01*
X10340768Y-16345971D02*
X10350291Y-16365019D01*
X10350291Y-16365019D02*
X10359815Y-16403114D01*
X10359815Y-16403114D02*
X10359815Y-16450733D01*
X10359815Y-16450733D02*
X10350291Y-16488828D01*
X10350291Y-16488828D02*
X10340768Y-16507876D01*
X10340768Y-16507876D02*
X10331244Y-16517400D01*
X10331244Y-16517400D02*
X10312196Y-16526924D01*
X10312196Y-16526924D02*
X10293148Y-16526924D01*
X10293148Y-16526924D02*
X10274101Y-16517400D01*
X10274101Y-16517400D02*
X10264577Y-16507876D01*
X10264577Y-16507876D02*
X10255053Y-16488828D01*
X10255053Y-16488828D02*
X10245529Y-16450733D01*
X10245529Y-16450733D02*
X10245529Y-16403114D01*
X10245529Y-16403114D02*
X10255053Y-16365019D01*
X10255053Y-16365019D02*
X10264577Y-16345971D01*
X10264577Y-16345971D02*
X10274101Y-16336448D01*
X10274101Y-16336448D02*
X10293148Y-16326924D01*
X10426482Y-16326924D02*
X10550291Y-16326924D01*
X10550291Y-16326924D02*
X10483625Y-16403114D01*
X10483625Y-16403114D02*
X10512196Y-16403114D01*
X10512196Y-16403114D02*
X10531244Y-16412638D01*
X10531244Y-16412638D02*
X10540768Y-16422162D01*
X10540768Y-16422162D02*
X10550291Y-16441209D01*
X10550291Y-16441209D02*
X10550291Y-16488828D01*
X10550291Y-16488828D02*
X10540768Y-16507876D01*
X10540768Y-16507876D02*
X10531244Y-16517400D01*
X10531244Y-16517400D02*
X10512196Y-16526924D01*
X10512196Y-16526924D02*
X10455053Y-16526924D01*
X10455053Y-16526924D02*
X10436006Y-16517400D01*
X10436006Y-16517400D02*
X10426482Y-16507876D01*
X10645529Y-16526924D02*
X10683625Y-16526924D01*
X10683625Y-16526924D02*
X10702672Y-16517400D01*
X10702672Y-16517400D02*
X10712196Y-16507876D01*
X10712196Y-16507876D02*
X10731244Y-16479305D01*
X10731244Y-16479305D02*
X10740768Y-16441209D01*
X10740768Y-16441209D02*
X10740768Y-16365019D01*
X10740768Y-16365019D02*
X10731244Y-16345971D01*
X10731244Y-16345971D02*
X10721720Y-16336448D01*
X10721720Y-16336448D02*
X10702672Y-16326924D01*
X10702672Y-16326924D02*
X10664577Y-16326924D01*
X10664577Y-16326924D02*
X10645529Y-16336448D01*
X10645529Y-16336448D02*
X10636006Y-16345971D01*
X10636006Y-16345971D02*
X10626482Y-16365019D01*
X10626482Y-16365019D02*
X10626482Y-16412638D01*
X10626482Y-16412638D02*
X10636006Y-16431686D01*
X10636006Y-16431686D02*
X10645529Y-16441209D01*
X10645529Y-16441209D02*
X10664577Y-16450733D01*
X10664577Y-16450733D02*
X10702672Y-16450733D01*
X10702672Y-16450733D02*
X10721720Y-16441209D01*
X10721720Y-16441209D02*
X10731244Y-16431686D01*
X10731244Y-16431686D02*
X10740768Y-16412638D01*
X10912196Y-16393590D02*
X10912196Y-16526924D01*
X10864577Y-16317400D02*
X10816958Y-16460257D01*
X10816958Y-16460257D02*
X10940768Y-16460257D01*
X11007434Y-16326924D02*
X11007434Y-16365019D01*
X11083625Y-16326924D02*
X11083625Y-16365019D01*
X11378863Y-16603114D02*
X11369339Y-16593590D01*
X11369339Y-16593590D02*
X11350291Y-16565019D01*
X11350291Y-16565019D02*
X11340768Y-16545971D01*
X11340768Y-16545971D02*
X11331244Y-16517400D01*
X11331244Y-16517400D02*
X11321720Y-16469781D01*
X11321720Y-16469781D02*
X11321720Y-16431686D01*
X11321720Y-16431686D02*
X11331244Y-16384067D01*
X11331244Y-16384067D02*
X11340768Y-16355495D01*
X11340768Y-16355495D02*
X11350291Y-16336448D01*
X11350291Y-16336448D02*
X11369339Y-16307876D01*
X11369339Y-16307876D02*
X11378863Y-16298352D01*
X11483625Y-16412638D02*
X11464577Y-16403114D01*
X11464577Y-16403114D02*
X11455053Y-16393590D01*
X11455053Y-16393590D02*
X11445529Y-16374543D01*
X11445529Y-16374543D02*
X11445529Y-16365019D01*
X11445529Y-16365019D02*
X11455053Y-16345971D01*
X11455053Y-16345971D02*
X11464577Y-16336448D01*
X11464577Y-16336448D02*
X11483625Y-16326924D01*
X11483625Y-16326924D02*
X11521720Y-16326924D01*
X11521720Y-16326924D02*
X11540768Y-16336448D01*
X11540768Y-16336448D02*
X11550291Y-16345971D01*
X11550291Y-16345971D02*
X11559815Y-16365019D01*
X11559815Y-16365019D02*
X11559815Y-16374543D01*
X11559815Y-16374543D02*
X11550291Y-16393590D01*
X11550291Y-16393590D02*
X11540768Y-16403114D01*
X11540768Y-16403114D02*
X11521720Y-16412638D01*
X11521720Y-16412638D02*
X11483625Y-16412638D01*
X11483625Y-16412638D02*
X11464577Y-16422162D01*
X11464577Y-16422162D02*
X11455053Y-16431686D01*
X11455053Y-16431686D02*
X11445529Y-16450733D01*
X11445529Y-16450733D02*
X11445529Y-16488828D01*
X11445529Y-16488828D02*
X11455053Y-16507876D01*
X11455053Y-16507876D02*
X11464577Y-16517400D01*
X11464577Y-16517400D02*
X11483625Y-16526924D01*
X11483625Y-16526924D02*
X11521720Y-16526924D01*
X11521720Y-16526924D02*
X11540768Y-16517400D01*
X11540768Y-16517400D02*
X11550291Y-16507876D01*
X11550291Y-16507876D02*
X11559815Y-16488828D01*
X11559815Y-16488828D02*
X11559815Y-16450733D01*
X11559815Y-16450733D02*
X11550291Y-16431686D01*
X11550291Y-16431686D02*
X11540768Y-16422162D01*
X11540768Y-16422162D02*
X11521720Y-16412638D01*
X11626482Y-16326924D02*
X11759815Y-16326924D01*
X11759815Y-16326924D02*
X11674101Y-16526924D01*
X11988387Y-16526924D02*
X11988387Y-16326924D01*
X12074101Y-16526924D02*
X12074101Y-16422162D01*
X12074101Y-16422162D02*
X12064577Y-16403114D01*
X12064577Y-16403114D02*
X12045530Y-16393590D01*
X12045530Y-16393590D02*
X12016958Y-16393590D01*
X12016958Y-16393590D02*
X11997910Y-16403114D01*
X11997910Y-16403114D02*
X11988387Y-16412638D01*
X12197910Y-16526924D02*
X12178863Y-16517400D01*
X12178863Y-16517400D02*
X12169339Y-16507876D01*
X12169339Y-16507876D02*
X12159815Y-16488828D01*
X12159815Y-16488828D02*
X12159815Y-16431686D01*
X12159815Y-16431686D02*
X12169339Y-16412638D01*
X12169339Y-16412638D02*
X12178863Y-16403114D01*
X12178863Y-16403114D02*
X12197910Y-16393590D01*
X12197910Y-16393590D02*
X12226482Y-16393590D01*
X12226482Y-16393590D02*
X12245530Y-16403114D01*
X12245530Y-16403114D02*
X12255053Y-16412638D01*
X12255053Y-16412638D02*
X12264577Y-16431686D01*
X12264577Y-16431686D02*
X12264577Y-16488828D01*
X12264577Y-16488828D02*
X12255053Y-16507876D01*
X12255053Y-16507876D02*
X12245530Y-16517400D01*
X12245530Y-16517400D02*
X12226482Y-16526924D01*
X12226482Y-16526924D02*
X12197910Y-16526924D01*
X12378863Y-16526924D02*
X12359815Y-16517400D01*
X12359815Y-16517400D02*
X12350291Y-16498352D01*
X12350291Y-16498352D02*
X12350291Y-16326924D01*
X12531244Y-16517400D02*
X12512196Y-16526924D01*
X12512196Y-16526924D02*
X12474101Y-16526924D01*
X12474101Y-16526924D02*
X12455053Y-16517400D01*
X12455053Y-16517400D02*
X12445530Y-16498352D01*
X12445530Y-16498352D02*
X12445530Y-16422162D01*
X12445530Y-16422162D02*
X12455053Y-16403114D01*
X12455053Y-16403114D02*
X12474101Y-16393590D01*
X12474101Y-16393590D02*
X12512196Y-16393590D01*
X12512196Y-16393590D02*
X12531244Y-16403114D01*
X12531244Y-16403114D02*
X12540768Y-16422162D01*
X12540768Y-16422162D02*
X12540768Y-16441209D01*
X12540768Y-16441209D02*
X12445530Y-16460257D01*
X12616958Y-16517400D02*
X12636006Y-16526924D01*
X12636006Y-16526924D02*
X12674101Y-16526924D01*
X12674101Y-16526924D02*
X12693149Y-16517400D01*
X12693149Y-16517400D02*
X12702672Y-16498352D01*
X12702672Y-16498352D02*
X12702672Y-16488828D01*
X12702672Y-16488828D02*
X12693149Y-16469781D01*
X12693149Y-16469781D02*
X12674101Y-16460257D01*
X12674101Y-16460257D02*
X12645530Y-16460257D01*
X12645530Y-16460257D02*
X12626482Y-16450733D01*
X12626482Y-16450733D02*
X12616958Y-16431686D01*
X12616958Y-16431686D02*
X12616958Y-16422162D01*
X12616958Y-16422162D02*
X12626482Y-16403114D01*
X12626482Y-16403114D02*
X12645530Y-16393590D01*
X12645530Y-16393590D02*
X12674101Y-16393590D01*
X12674101Y-16393590D02*
X12693149Y-16403114D01*
X12769339Y-16603114D02*
X12778863Y-16593590D01*
X12778863Y-16593590D02*
X12797911Y-16565019D01*
X12797911Y-16565019D02*
X12807434Y-16545971D01*
X12807434Y-16545971D02*
X12816958Y-16517400D01*
X12816958Y-16517400D02*
X12826482Y-16469781D01*
X12826482Y-16469781D02*
X12826482Y-16431686D01*
X12826482Y-16431686D02*
X12816958Y-16384067D01*
X12816958Y-16384067D02*
X12807434Y-16355495D01*
X12807434Y-16355495D02*
X12797911Y-16336448D01*
X12797911Y-16336448D02*
X12778863Y-16307876D01*
X12778863Y-16307876D02*
X12769339Y-16298352D01*
D15*
X7738800Y-16764440D02*
X7803800Y-16699440D01*
X7738800Y-16634440D01*
X7673800Y-16699440D01*
X7738800Y-16764440D01*
D11*
X8169339Y-16790924D02*
X8055053Y-16790924D01*
X8112196Y-16790924D02*
X8112196Y-16590924D01*
X8112196Y-16590924D02*
X8093148Y-16619495D01*
X8093148Y-16619495D02*
X8074101Y-16638543D01*
X8074101Y-16638543D02*
X8055053Y-16648067D01*
X8255053Y-16771876D02*
X8264577Y-16781400D01*
X8264577Y-16781400D02*
X8255053Y-16790924D01*
X8255053Y-16790924D02*
X8245529Y-16781400D01*
X8245529Y-16781400D02*
X8255053Y-16771876D01*
X8255053Y-16771876D02*
X8255053Y-16790924D01*
X8331243Y-16590924D02*
X8455053Y-16590924D01*
X8455053Y-16590924D02*
X8388386Y-16667114D01*
X8388386Y-16667114D02*
X8416958Y-16667114D01*
X8416958Y-16667114D02*
X8436005Y-16676638D01*
X8436005Y-16676638D02*
X8445529Y-16686162D01*
X8445529Y-16686162D02*
X8455053Y-16705209D01*
X8455053Y-16705209D02*
X8455053Y-16752828D01*
X8455053Y-16752828D02*
X8445529Y-16771876D01*
X8445529Y-16771876D02*
X8436005Y-16781400D01*
X8436005Y-16781400D02*
X8416958Y-16790924D01*
X8416958Y-16790924D02*
X8359815Y-16790924D01*
X8359815Y-16790924D02*
X8340767Y-16781400D01*
X8340767Y-16781400D02*
X8331243Y-16771876D01*
X8578863Y-16590924D02*
X8597910Y-16590924D01*
X8597910Y-16590924D02*
X8616958Y-16600448D01*
X8616958Y-16600448D02*
X8626482Y-16609971D01*
X8626482Y-16609971D02*
X8636005Y-16629019D01*
X8636005Y-16629019D02*
X8645529Y-16667114D01*
X8645529Y-16667114D02*
X8645529Y-16714733D01*
X8645529Y-16714733D02*
X8636005Y-16752828D01*
X8636005Y-16752828D02*
X8626482Y-16771876D01*
X8626482Y-16771876D02*
X8616958Y-16781400D01*
X8616958Y-16781400D02*
X8597910Y-16790924D01*
X8597910Y-16790924D02*
X8578863Y-16790924D01*
X8578863Y-16790924D02*
X8559815Y-16781400D01*
X8559815Y-16781400D02*
X8550291Y-16771876D01*
X8550291Y-16771876D02*
X8540767Y-16752828D01*
X8540767Y-16752828D02*
X8531244Y-16714733D01*
X8531244Y-16714733D02*
X8531244Y-16667114D01*
X8531244Y-16667114D02*
X8540767Y-16629019D01*
X8540767Y-16629019D02*
X8550291Y-16609971D01*
X8550291Y-16609971D02*
X8559815Y-16600448D01*
X8559815Y-16600448D02*
X8578863Y-16590924D01*
X8769339Y-16590924D02*
X8788386Y-16590924D01*
X8788386Y-16590924D02*
X8807434Y-16600448D01*
X8807434Y-16600448D02*
X8816958Y-16609971D01*
X8816958Y-16609971D02*
X8826482Y-16629019D01*
X8826482Y-16629019D02*
X8836005Y-16667114D01*
X8836005Y-16667114D02*
X8836005Y-16714733D01*
X8836005Y-16714733D02*
X8826482Y-16752828D01*
X8826482Y-16752828D02*
X8816958Y-16771876D01*
X8816958Y-16771876D02*
X8807434Y-16781400D01*
X8807434Y-16781400D02*
X8788386Y-16790924D01*
X8788386Y-16790924D02*
X8769339Y-16790924D01*
X8769339Y-16790924D02*
X8750291Y-16781400D01*
X8750291Y-16781400D02*
X8740767Y-16771876D01*
X8740767Y-16771876D02*
X8731244Y-16752828D01*
X8731244Y-16752828D02*
X8721720Y-16714733D01*
X8721720Y-16714733D02*
X8721720Y-16667114D01*
X8721720Y-16667114D02*
X8731244Y-16629019D01*
X8731244Y-16629019D02*
X8740767Y-16609971D01*
X8740767Y-16609971D02*
X8750291Y-16600448D01*
X8750291Y-16600448D02*
X8769339Y-16590924D01*
X8921720Y-16790924D02*
X8921720Y-16657590D01*
X8921720Y-16676638D02*
X8931244Y-16667114D01*
X8931244Y-16667114D02*
X8950291Y-16657590D01*
X8950291Y-16657590D02*
X8978863Y-16657590D01*
X8978863Y-16657590D02*
X8997910Y-16667114D01*
X8997910Y-16667114D02*
X9007434Y-16686162D01*
X9007434Y-16686162D02*
X9007434Y-16790924D01*
X9007434Y-16686162D02*
X9016958Y-16667114D01*
X9016958Y-16667114D02*
X9036005Y-16657590D01*
X9036005Y-16657590D02*
X9064577Y-16657590D01*
X9064577Y-16657590D02*
X9083625Y-16667114D01*
X9083625Y-16667114D02*
X9093148Y-16686162D01*
X9093148Y-16686162D02*
X9093148Y-16790924D01*
X9188386Y-16790924D02*
X9188386Y-16657590D01*
X9188386Y-16676638D02*
X9197910Y-16667114D01*
X9197910Y-16667114D02*
X9216958Y-16657590D01*
X9216958Y-16657590D02*
X9245529Y-16657590D01*
X9245529Y-16657590D02*
X9264577Y-16667114D01*
X9264577Y-16667114D02*
X9274101Y-16686162D01*
X9274101Y-16686162D02*
X9274101Y-16790924D01*
X9274101Y-16686162D02*
X9283625Y-16667114D01*
X9283625Y-16667114D02*
X9302672Y-16657590D01*
X9302672Y-16657590D02*
X9331244Y-16657590D01*
X9331244Y-16657590D02*
X9350291Y-16667114D01*
X9350291Y-16667114D02*
X9359815Y-16686162D01*
X9359815Y-16686162D02*
X9359815Y-16790924D01*
X9750291Y-16581400D02*
X9578863Y-16838543D01*
X10007434Y-16590924D02*
X10026482Y-16590924D01*
X10026482Y-16590924D02*
X10045529Y-16600448D01*
X10045529Y-16600448D02*
X10055053Y-16609971D01*
X10055053Y-16609971D02*
X10064577Y-16629019D01*
X10064577Y-16629019D02*
X10074101Y-16667114D01*
X10074101Y-16667114D02*
X10074101Y-16714733D01*
X10074101Y-16714733D02*
X10064577Y-16752828D01*
X10064577Y-16752828D02*
X10055053Y-16771876D01*
X10055053Y-16771876D02*
X10045529Y-16781400D01*
X10045529Y-16781400D02*
X10026482Y-16790924D01*
X10026482Y-16790924D02*
X10007434Y-16790924D01*
X10007434Y-16790924D02*
X9988387Y-16781400D01*
X9988387Y-16781400D02*
X9978863Y-16771876D01*
X9978863Y-16771876D02*
X9969339Y-16752828D01*
X9969339Y-16752828D02*
X9959815Y-16714733D01*
X9959815Y-16714733D02*
X9959815Y-16667114D01*
X9959815Y-16667114D02*
X9969339Y-16629019D01*
X9969339Y-16629019D02*
X9978863Y-16609971D01*
X9978863Y-16609971D02*
X9988387Y-16600448D01*
X9988387Y-16600448D02*
X10007434Y-16590924D01*
X10159815Y-16771876D02*
X10169339Y-16781400D01*
X10169339Y-16781400D02*
X10159815Y-16790924D01*
X10159815Y-16790924D02*
X10150291Y-16781400D01*
X10150291Y-16781400D02*
X10159815Y-16771876D01*
X10159815Y-16771876D02*
X10159815Y-16790924D01*
X10293148Y-16590924D02*
X10312196Y-16590924D01*
X10312196Y-16590924D02*
X10331244Y-16600448D01*
X10331244Y-16600448D02*
X10340768Y-16609971D01*
X10340768Y-16609971D02*
X10350291Y-16629019D01*
X10350291Y-16629019D02*
X10359815Y-16667114D01*
X10359815Y-16667114D02*
X10359815Y-16714733D01*
X10359815Y-16714733D02*
X10350291Y-16752828D01*
X10350291Y-16752828D02*
X10340768Y-16771876D01*
X10340768Y-16771876D02*
X10331244Y-16781400D01*
X10331244Y-16781400D02*
X10312196Y-16790924D01*
X10312196Y-16790924D02*
X10293148Y-16790924D01*
X10293148Y-16790924D02*
X10274101Y-16781400D01*
X10274101Y-16781400D02*
X10264577Y-16771876D01*
X10264577Y-16771876D02*
X10255053Y-16752828D01*
X10255053Y-16752828D02*
X10245529Y-16714733D01*
X10245529Y-16714733D02*
X10245529Y-16667114D01*
X10245529Y-16667114D02*
X10255053Y-16629019D01*
X10255053Y-16629019D02*
X10264577Y-16609971D01*
X10264577Y-16609971D02*
X10274101Y-16600448D01*
X10274101Y-16600448D02*
X10293148Y-16590924D01*
X10540768Y-16590924D02*
X10445529Y-16590924D01*
X10445529Y-16590924D02*
X10436006Y-16686162D01*
X10436006Y-16686162D02*
X10445529Y-16676638D01*
X10445529Y-16676638D02*
X10464577Y-16667114D01*
X10464577Y-16667114D02*
X10512196Y-16667114D01*
X10512196Y-16667114D02*
X10531244Y-16676638D01*
X10531244Y-16676638D02*
X10540768Y-16686162D01*
X10540768Y-16686162D02*
X10550291Y-16705209D01*
X10550291Y-16705209D02*
X10550291Y-16752828D01*
X10550291Y-16752828D02*
X10540768Y-16771876D01*
X10540768Y-16771876D02*
X10531244Y-16781400D01*
X10531244Y-16781400D02*
X10512196Y-16790924D01*
X10512196Y-16790924D02*
X10464577Y-16790924D01*
X10464577Y-16790924D02*
X10445529Y-16781400D01*
X10445529Y-16781400D02*
X10436006Y-16771876D01*
X10740768Y-16790924D02*
X10626482Y-16790924D01*
X10683625Y-16790924D02*
X10683625Y-16590924D01*
X10683625Y-16590924D02*
X10664577Y-16619495D01*
X10664577Y-16619495D02*
X10645529Y-16638543D01*
X10645529Y-16638543D02*
X10626482Y-16648067D01*
X10816958Y-16609971D02*
X10826482Y-16600448D01*
X10826482Y-16600448D02*
X10845529Y-16590924D01*
X10845529Y-16590924D02*
X10893149Y-16590924D01*
X10893149Y-16590924D02*
X10912196Y-16600448D01*
X10912196Y-16600448D02*
X10921720Y-16609971D01*
X10921720Y-16609971D02*
X10931244Y-16629019D01*
X10931244Y-16629019D02*
X10931244Y-16648067D01*
X10931244Y-16648067D02*
X10921720Y-16676638D01*
X10921720Y-16676638D02*
X10807434Y-16790924D01*
X10807434Y-16790924D02*
X10931244Y-16790924D01*
X11007434Y-16590924D02*
X11007434Y-16629019D01*
X11083625Y-16590924D02*
X11083625Y-16629019D01*
X11378863Y-16867114D02*
X11369339Y-16857590D01*
X11369339Y-16857590D02*
X11350291Y-16829019D01*
X11350291Y-16829019D02*
X11340768Y-16809971D01*
X11340768Y-16809971D02*
X11331244Y-16781400D01*
X11331244Y-16781400D02*
X11321720Y-16733781D01*
X11321720Y-16733781D02*
X11321720Y-16695686D01*
X11321720Y-16695686D02*
X11331244Y-16648067D01*
X11331244Y-16648067D02*
X11340768Y-16619495D01*
X11340768Y-16619495D02*
X11350291Y-16600448D01*
X11350291Y-16600448D02*
X11369339Y-16571876D01*
X11369339Y-16571876D02*
X11378863Y-16562352D01*
X11436006Y-16590924D02*
X11559815Y-16590924D01*
X11559815Y-16590924D02*
X11493148Y-16667114D01*
X11493148Y-16667114D02*
X11521720Y-16667114D01*
X11521720Y-16667114D02*
X11540768Y-16676638D01*
X11540768Y-16676638D02*
X11550291Y-16686162D01*
X11550291Y-16686162D02*
X11559815Y-16705209D01*
X11559815Y-16705209D02*
X11559815Y-16752828D01*
X11559815Y-16752828D02*
X11550291Y-16771876D01*
X11550291Y-16771876D02*
X11540768Y-16781400D01*
X11540768Y-16781400D02*
X11521720Y-16790924D01*
X11521720Y-16790924D02*
X11464577Y-16790924D01*
X11464577Y-16790924D02*
X11445529Y-16781400D01*
X11445529Y-16781400D02*
X11436006Y-16771876D01*
X11797910Y-16790924D02*
X11797910Y-16590924D01*
X11883625Y-16790924D02*
X11883625Y-16686162D01*
X11883625Y-16686162D02*
X11874101Y-16667114D01*
X11874101Y-16667114D02*
X11855053Y-16657590D01*
X11855053Y-16657590D02*
X11826482Y-16657590D01*
X11826482Y-16657590D02*
X11807434Y-16667114D01*
X11807434Y-16667114D02*
X11797910Y-16676638D01*
X12007434Y-16790924D02*
X11988387Y-16781400D01*
X11988387Y-16781400D02*
X11978863Y-16771876D01*
X11978863Y-16771876D02*
X11969339Y-16752828D01*
X11969339Y-16752828D02*
X11969339Y-16695686D01*
X11969339Y-16695686D02*
X11978863Y-16676638D01*
X11978863Y-16676638D02*
X11988387Y-16667114D01*
X11988387Y-16667114D02*
X12007434Y-16657590D01*
X12007434Y-16657590D02*
X12036006Y-16657590D01*
X12036006Y-16657590D02*
X12055053Y-16667114D01*
X12055053Y-16667114D02*
X12064577Y-16676638D01*
X12064577Y-16676638D02*
X12074101Y-16695686D01*
X12074101Y-16695686D02*
X12074101Y-16752828D01*
X12074101Y-16752828D02*
X12064577Y-16771876D01*
X12064577Y-16771876D02*
X12055053Y-16781400D01*
X12055053Y-16781400D02*
X12036006Y-16790924D01*
X12036006Y-16790924D02*
X12007434Y-16790924D01*
X12188387Y-16790924D02*
X12169339Y-16781400D01*
X12169339Y-16781400D02*
X12159815Y-16762352D01*
X12159815Y-16762352D02*
X12159815Y-16590924D01*
X12340768Y-16781400D02*
X12321720Y-16790924D01*
X12321720Y-16790924D02*
X12283625Y-16790924D01*
X12283625Y-16790924D02*
X12264577Y-16781400D01*
X12264577Y-16781400D02*
X12255053Y-16762352D01*
X12255053Y-16762352D02*
X12255053Y-16686162D01*
X12255053Y-16686162D02*
X12264577Y-16667114D01*
X12264577Y-16667114D02*
X12283625Y-16657590D01*
X12283625Y-16657590D02*
X12321720Y-16657590D01*
X12321720Y-16657590D02*
X12340768Y-16667114D01*
X12340768Y-16667114D02*
X12350291Y-16686162D01*
X12350291Y-16686162D02*
X12350291Y-16705209D01*
X12350291Y-16705209D02*
X12255053Y-16724257D01*
X12426482Y-16781400D02*
X12445530Y-16790924D01*
X12445530Y-16790924D02*
X12483625Y-16790924D01*
X12483625Y-16790924D02*
X12502672Y-16781400D01*
X12502672Y-16781400D02*
X12512196Y-16762352D01*
X12512196Y-16762352D02*
X12512196Y-16752828D01*
X12512196Y-16752828D02*
X12502672Y-16733781D01*
X12502672Y-16733781D02*
X12483625Y-16724257D01*
X12483625Y-16724257D02*
X12455053Y-16724257D01*
X12455053Y-16724257D02*
X12436006Y-16714733D01*
X12436006Y-16714733D02*
X12426482Y-16695686D01*
X12426482Y-16695686D02*
X12426482Y-16686162D01*
X12426482Y-16686162D02*
X12436006Y-16667114D01*
X12436006Y-16667114D02*
X12455053Y-16657590D01*
X12455053Y-16657590D02*
X12483625Y-16657590D01*
X12483625Y-16657590D02*
X12502672Y-16667114D01*
X12578863Y-16867114D02*
X12588387Y-16857590D01*
X12588387Y-16857590D02*
X12607434Y-16829019D01*
X12607434Y-16829019D02*
X12616958Y-16809971D01*
X12616958Y-16809971D02*
X12626482Y-16781400D01*
X12626482Y-16781400D02*
X12636006Y-16733781D01*
X12636006Y-16733781D02*
X12636006Y-16695686D01*
X12636006Y-16695686D02*
X12626482Y-16648067D01*
X12626482Y-16648067D02*
X12616958Y-16619495D01*
X12616958Y-16619495D02*
X12607434Y-16600448D01*
X12607434Y-16600448D02*
X12588387Y-16571876D01*
X12588387Y-16571876D02*
X12578863Y-16562352D01*
M02*
