M48
; DRILL file {KiCad 7.0.8} date Tue Nov  7 10:45:01 2023
; FORMAT={-:-/ absolute / inch / decimal}
; #@! TF.CreationDate,2023-11-07T10:45:01+02:00
; #@! TF.GenerationSoftware,Kicad,Pcbnew,7.0.8
; #@! TF.FileFunction,Plated,1,2,PTH
FMAT,2
INCH
; #@! TA.AperFunction,Plated,PTH,ComponentDrill
T1C0.0098
; #@! TA.AperFunction,Plated,PTH,ViaDrill
T2C0.0118
; #@! TA.AperFunction,Plated,PTH,ViaDrill
T3C0.0197
; #@! TA.AperFunction,Plated,PTH,ComponentDrill
T4C0.0394
; #@! TA.AperFunction,Plated,PTH,ComponentDrill
T5C0.0512
%
G90
G05
T1
X3.825Y-2.965
X3.825Y-3.0044
X3.825Y-3.0437
X3.8762Y-2.965
X3.8762Y-3.0044
X3.8762Y-3.0437
T2
X3.189Y-3.9961
X3.2173Y-3.1705
X3.2205Y-3.3898
X3.2382Y-3.3118
X3.2382Y-3.4882
X3.2441Y-3.3661
X3.2535Y-2.65
X3.2618Y-3.1713
X3.2618Y-3.2882
X3.2618Y-3.5118
X3.2657Y-3.1161
X3.2677Y-5.5315
X3.2677Y-5.5906
X3.3386Y-3.0276
X3.3411Y-2.55
X3.3465Y-5.5315
X3.3465Y-5.5906
X3.3563Y-3.0571
X3.3661Y-4.0354
X3.3746Y-2.55
X3.4094Y-3.5689
X3.4252Y-2.7953
X3.4252Y-5.5315
X3.4252Y-5.5906
X3.4382Y-2.5382
X3.4618Y-2.5618
X3.5Y-3.9882
X3.5Y-3.9882
X3.5039Y-5.5315
X3.5039Y-5.5906
X3.5063Y-3.3055
X3.5067Y-3.4012
X3.5157Y-2.5492
X3.5394Y-2.5729
X3.5433Y-2.7953
X3.559Y-4.1924
X3.563Y-3.5827
X3.563Y-3.6614
X3.5827Y-5.5315
X3.5827Y-5.5906
X3.5988Y-4.1882
X3.6217Y-3.9551
X3.622Y-2.7953
X3.6346Y-2.8843
X3.6378Y-2.5669
X3.6614Y-5.5315
X3.6614Y-5.5906
X3.6642Y-4.2228
X3.6811Y-3.9555
X3.6969Y-2.5709
X3.7795Y-3.3071
X3.7795Y-3.4055
X3.7795Y-3.5039
X3.7991Y-3.9804
X3.8016Y-5.1535
X3.8016Y-5.2756
X3.8016Y-5.3295
X3.802Y-4.3606
X3.802Y-4.4591
X3.802Y-4.5772
X3.802Y-4.6362
X3.802Y-4.9118
X3.802Y-4.9906
X3.8024Y-5.1012
X3.8028Y-4.7492
X3.8028Y-4.8012
X3.8091Y-2.6555
X3.8268Y-2.6004
X3.8307Y-4.0157
X3.8614Y-3.9862
X3.9051Y-4.1902
X3.9217Y-4.161
X3.9567Y-3.3071
X3.9567Y-3.4055
X3.9567Y-3.5039
X3.9579Y-3.9638
X3.9646Y-4.3531
X3.987Y-4.6906
X3.9961Y-4.9213
X4.0157Y-5.0591
X4.0217Y-4.5409
X4.0268Y-4.2445
X4.0311Y-3.9664
X4.0346Y-4.3028
X4.0618Y-4.2028
X4.0878Y-4.3535
X4.0906Y-4.3008
X4.0945Y-4.9803
X4.1352Y-3.4934
X4.1421Y-4.4937
X4.1772Y-3.7354
X4.1878Y-4.4417
X4.1929Y-5.1181
X4.1929Y-5.1575
X4.2126Y-4.5276
X4.2126Y-4.5669
X4.2126Y-4.6063
X4.2126Y-4.6457
X4.2126Y-4.7835
X4.2126Y-4.8228
X4.2126Y-4.8622
X4.2126Y-4.9016
X4.2146Y-5.7287
X4.252Y-4.5276
X4.252Y-4.5669
X4.252Y-4.6063
X4.252Y-4.6457
X4.252Y-4.7835
X4.252Y-4.8228
X4.252Y-4.8622
X4.252Y-4.9016
X4.2539Y-5.7878
X4.2681Y-4.2354
X4.2717Y-5.1181
X4.2717Y-5.1575
X4.2722Y-4.4345
X4.2913Y-3.3071
X4.2913Y-4.0157
X4.2933Y-5.7287
X4.3004Y-3.5984
X4.3327Y-5.7878
X4.3478Y-3.373
X4.3504Y-5.1181
X4.3504Y-5.1575
X4.3602Y-3.9906
X4.372Y-5.7287
X4.3898Y-2.5984
X4.4114Y-5.7878
X4.4213Y-3.4567
X4.4232Y-3.9886
X4.4291Y-5.1181
X4.4291Y-5.1575
X4.4394Y-4.4638
X4.4398Y-4.3291
X4.4488Y-4.626
X4.4508Y-5.7287
X4.46Y-2.695
X4.46Y-2.79
X4.4902Y-5.7878
X4.4921Y-4.3976
X4.5055Y-4.076
X4.5079Y-5.1181
X4.5079Y-5.1575
X4.5189Y-3.7346
X4.5276Y-4.0157
X4.5276Y-4.3898
X4.5283Y-3.6992
X4.5295Y-5.7287
X4.5335Y-4.2579
X4.535Y-2.59
X4.55Y-3.9496
X4.5689Y-5.7878
X4.5845Y-4.0619
X4.5866Y-4.4685
X4.5866Y-4.5079
X4.5866Y-5.1181
X4.5866Y-5.1575
X4.6063Y-4.0157
X4.6083Y-5.7287
X4.6118Y-3.9544
X4.6417Y-3.4567
X4.6431Y-3.5861
X4.6457Y-3.5039
X4.6457Y-4.4685
X4.6457Y-4.5079
X4.6472Y-3.9236
X4.6602Y-4.0283
X4.6654Y-4.2157
X4.7205Y-2.4488
X4.7339Y-2.7394
X4.7677Y-2.437
X4.7689Y-2.7421
X4.7736Y-4.3457
X4.7756Y-4.1531
X4.7776Y-4.2894
X4.7803Y-4.2457
X4.7914Y-2.4607
X4.7933Y-3.9544
X4.8031Y-3.4508
X4.8031Y-5.315
X4.8098Y-4.363
X4.8386Y-3.4528
X4.8433Y-4.0126
X4.845Y-2.5212
X4.8452Y-2.5543
X4.8626Y-2.9598
X4.8819Y-5.2362
X4.8819Y-5.315
X4.8819Y-5.3937
X4.8846Y-2.5646
X4.8894Y-2.7508
X4.9Y-3.6
X4.9016Y-3.5236
X4.9016Y-3.565
X4.9016Y-4.0126
X4.9059Y-2.7953
X4.9102Y-2.6996
X4.9193Y-3.4646
X4.9228Y-2.5445
X4.9232Y-2.7508
X4.9236Y-4.3504
X4.937Y-3.2756
X4.9488Y-3.9657
X4.9606Y-5.315
X4.972Y-2.5681
X4.9768Y-2.937
X4.9933Y-2.8984
X4.9965Y-2.7492
X5.0043Y-4.5626
X5.0272Y-5.1043
X5.037Y-4.1043
X5.0453Y-3.2815
X5.0469Y-5.074
X5.0472Y-3.4547
X5.05Y-5.1315
X5.0587Y-4.374
X5.0669Y-5.1043
X5.2165Y-4.3504
X5.3094Y-4.2331
X5.3146Y-4.0217
X5.3331Y-4.3394
X5.5512Y-3.8189
X5.5512Y-3.8583
X5.5512Y-3.8976
X5.5512Y-3.937
X5.5512Y-3.9764
T3
X4.32Y-2.74
X5.11Y-2.735
X5.2661Y-2.6431
T4
X3.3991Y-3.7984
X3.3991Y-3.8984
X3.459Y-4.2899
X3.459Y-4.4591
X3.459Y-4.6362
X3.459Y-4.8134
X3.459Y-4.9906
X3.459Y-5.1677
X3.459Y-5.3449
X3.4991Y-3.7984
X3.4991Y-3.8984
X3.559Y-4.2899
X3.559Y-4.4591
X3.559Y-4.6362
X3.559Y-4.8134
X3.559Y-4.9906
X3.559Y-5.1677
X3.559Y-5.3449
X3.5991Y-3.7984
X3.5991Y-3.8984
X3.6991Y-3.7984
X3.6991Y-3.8984
X3.7991Y-3.7984
X3.7991Y-3.8984
X3.8094Y-4.0945
X3.8991Y-3.7984
X3.8991Y-3.8984
X3.9094Y-4.0945
X3.9991Y-3.7984
X3.9991Y-3.8984
X4.0094Y-4.0945
X4.0991Y-3.7984
X4.0991Y-3.8984
X4.1094Y-4.0945
X4.1991Y-3.7984
X4.1991Y-3.8984
X4.2094Y-4.0945
X4.2991Y-3.7984
X4.2991Y-3.8984
X4.3094Y-4.0945
X4.3991Y-3.7984
X4.3991Y-3.8984
X4.4094Y-4.0945
X4.4991Y-3.7984
X4.4991Y-3.8984
X4.5787Y-4.7323
X4.5787Y-4.8323
X4.5991Y-3.7984
X4.5991Y-3.8984
X4.6787Y-4.7323
X4.6787Y-4.8323
X4.6991Y-3.7984
X4.6991Y-3.8984
X4.7787Y-4.7323
X4.7787Y-4.8323
X4.7991Y-3.7984
X4.7991Y-3.8984
X4.8991Y-3.7984
X4.8991Y-3.8984
X4.9991Y-3.7984
X4.9991Y-3.8984
X5.0991Y-3.7984
X5.0991Y-3.8984
X5.1278Y-2.85
X5.1278Y-2.95
X5.1278Y-3.15
X5.1278Y-3.25
X5.1278Y-3.35
X5.1278Y-3.45
X5.1278Y-3.55
X5.1278Y-3.65
X5.1299Y-4.2717
X5.1319Y-4.0945
X5.1319Y-4.4882
X5.1319Y-4.6654
X5.1319Y-4.8425
X5.1516Y-5.2882
X5.1991Y-3.7984
X5.1991Y-3.8984
X5.2299Y-4.2717
X5.2319Y-4.0945
X5.2319Y-4.4882
X5.2319Y-4.6654
X5.2319Y-4.8425
X5.2991Y-3.7984
X5.2991Y-3.8984
X5.4508Y-5.2882
T5
X3.5847Y-3.42
X4.1753Y-3.2231
X4.1753Y-3.6169
T0
M30
